<svg width="118" height="268" viewBox="0 0 118 268" fill="none" xmlns="http://www.w3.org/2000/svg">
<path d="M39.3613 205.646H101.207L95.0533 266.55H44.1003L39.3613 205.646Z" fill="#00404C" stroke="black" stroke-miterlimit="10"/>
<path d="M0.202778 267.301C1.46087 267.283 43.2028 252 43.2028 252L44.2028 267.301L0.202778 267.301Z" fill="black"/>
<path d="M42.8604 130.657L68.7961 152.577C68.7961 152.577 68.4013 195.039 68.438 197.893" stroke="#00404C" stroke-miterlimit="10"/>
<path d="M62.248 147.044L69.2004 100.701L108.582 77.4417" stroke="#00404C" stroke-miterlimit="10" stroke-linecap="round"/>
<path d="M85.4101 91.131L52.7058 28.6942L19.1289 10.3623" stroke="#00404C" stroke-miterlimit="10" stroke-linecap="round"/>
<path d="M55.6541 131.043C54.7357 132.153 52.3296 131.694 52.3296 131.694C52.3296 131.694 51.3192 129.428 52.2009 128.318C52.3627 128.042 52.5821 127.804 52.844 127.62C53.1059 127.437 53.4042 127.311 53.7189 127.253C54.0335 127.195 54.3571 127.205 54.6675 127.282C54.978 127.36 55.2681 127.503 55.5182 127.702C55.7684 127.902 55.9728 128.152 56.1173 128.438C56.2619 128.723 56.3435 129.036 56.3564 129.355C56.3693 129.675 56.3132 129.993 56.192 130.289C56.0709 130.585 55.8874 130.851 55.6541 131.07V131.043Z" fill="#FF49BC"/>
<path d="M52.1548 136.007C51.2364 134.915 52.1548 132.621 52.1548 132.621C52.1548 132.621 54.5792 132.107 55.4885 133.199C55.7273 133.412 55.9175 133.673 56.0459 133.966C56.1743 134.258 56.2378 134.575 56.2324 134.895C56.227 135.214 56.1527 135.529 56.0145 135.817C55.8762 136.105 55.6772 136.36 55.4313 136.564C55.1853 136.769 54.8981 136.917 54.5893 137.001C54.2805 137.084 53.9574 137.1 53.642 137.047C53.3266 136.994 53.0263 136.873 52.7617 136.694C52.4971 136.514 52.2744 136.28 52.1088 136.007H52.1548Z" fill="#FF49BC"/>
<path d="M48.3524 133.006C49.6474 133.594 51.6036 132.089 51.6036 132.089C51.6036 132.089 51.4566 129.612 50.1616 129.034C49.8938 128.864 49.593 128.754 49.2791 128.711C48.9652 128.667 48.6457 128.692 48.3419 128.782C48.0381 128.872 47.757 129.026 47.5176 129.233C47.2783 129.441 47.0861 129.697 46.954 129.985C46.8218 130.272 46.7527 130.585 46.7515 130.902C46.7502 131.218 46.8169 131.531 46.9468 131.82C47.0766 132.109 47.2667 132.367 47.5044 132.576C47.7421 132.785 48.0218 132.941 48.3248 133.034L48.3524 133.006Z" fill="#FF49BC"/>
<path d="M38.8104 123.62C39.8666 124.538 39.2696 126.969 39.2696 126.969C39.2696 126.969 36.9461 127.887 35.8808 126.905C35.6071 126.732 35.3743 126.501 35.1987 126.23C35.0231 125.958 34.9089 125.651 34.8639 125.331C34.8189 125.01 34.8442 124.684 34.9382 124.374C35.0321 124.065 35.1925 123.779 35.4079 123.538C35.6233 123.296 35.8886 123.104 36.1857 122.975C36.4828 122.847 36.8046 122.784 37.1283 122.792C37.4521 122.8 37.7702 122.878 38.0606 123.021C38.3511 123.164 38.607 123.368 38.8104 123.62Z" fill="#FF49BC"/>
<path d="M43.6044 127.373C42.4656 128.217 40.2248 127.134 40.2248 127.134C40.2248 127.134 39.8481 124.684 40.9869 123.84C41.2133 123.616 41.4855 123.443 41.7847 123.333C42.0838 123.223 42.4031 123.179 42.721 123.203C43.0388 123.228 43.3476 123.32 43.6266 123.474C43.9056 123.628 44.1482 123.84 44.3378 124.096C44.5275 124.352 44.6599 124.646 44.726 124.957C44.792 125.269 44.7902 125.591 44.7206 125.902C44.651 126.213 44.5152 126.505 44.3226 126.759C44.13 127.012 43.8852 127.222 43.6044 127.373Z" fill="#FF49BC"/>
<path d="M40.3627 131.043C41.0239 129.777 39.6003 127.74 39.6003 127.74C39.6003 127.74 37.1207 127.74 36.4595 129.006C36.2647 129.264 36.1286 129.562 36.0606 129.879C35.9925 130.195 35.9942 130.522 36.0655 130.838C36.1368 131.153 36.2761 131.45 36.4736 131.706C36.6711 131.963 36.9222 132.173 37.2092 132.323C37.4963 132.473 37.8127 132.558 38.1362 132.574C38.4597 132.589 38.7825 132.534 39.0826 132.412C39.3826 132.291 39.6526 132.105 39.8736 131.868C40.0947 131.632 40.2616 131.35 40.3627 131.043V131.043Z" fill="#FF49BC"/>
<path d="M47.7738 146.026C48.5912 144.861 51.0523 145.182 51.0523 145.182C51.0523 145.182 52.1913 147.384 51.3831 148.549C51.2427 148.84 51.0406 149.097 50.7909 149.303C50.5412 149.508 50.2498 149.657 49.9369 149.739C49.6239 149.82 49.2969 149.833 48.9785 149.776C48.6601 149.719 48.3579 149.593 48.0929 149.408C47.8278 149.223 47.6063 148.982 47.4435 148.703C47.2808 148.424 47.1808 148.113 47.1505 147.791C47.1201 147.469 47.1601 147.145 47.2677 146.84C47.3753 146.535 47.5481 146.257 47.7738 146.026V146.026Z" fill="#FF49BC"/>
<path d="M50.9791 140.823C51.9526 141.86 51.1351 144.209 51.1351 144.209C51.1351 144.209 48.7382 144.87 47.7646 143.833C47.5084 143.636 47.298 143.385 47.1483 143.099C46.9985 142.812 46.9128 142.497 46.8971 142.174C46.8815 141.851 46.9363 141.529 47.0577 141.23C47.1791 140.93 47.3643 140.661 47.6003 140.44C47.8363 140.219 48.1175 140.052 48.4245 139.95C48.7316 139.848 49.057 139.815 49.3784 139.851C49.6997 139.888 50.0094 139.994 50.2858 140.161C50.5621 140.329 50.7987 140.555 50.9791 140.823V140.823Z" fill="#B11E36"/>
<path d="M54.9466 143.594C53.6241 143.09 51.7598 144.732 51.7598 144.732C51.7598 144.732 52.0445 147.2 53.3762 147.705C53.6559 147.868 53.9677 147.968 54.2901 147.999C54.6124 148.029 54.9377 147.989 55.243 147.882C55.5484 147.774 55.8266 147.601 56.0585 147.375C56.2904 147.15 56.4702 146.876 56.5856 146.574C56.7011 146.272 56.7494 145.948 56.7271 145.625C56.7048 145.303 56.6124 144.989 56.4565 144.705C56.3006 144.422 56.0847 144.176 55.824 143.984C55.5633 143.792 55.2639 143.659 54.9466 143.594V143.594Z" fill="#FF49BC"/>
<path d="M74.7749 135.291C73.3606 135.126 72.4697 132.814 72.4697 132.814C72.4697 132.814 73.8749 130.758 75.2801 130.924C75.6043 130.906 75.9282 130.96 76.2294 131.081C76.5307 131.202 76.802 131.387 77.0243 131.623C77.2466 131.86 77.4147 132.142 77.5167 132.449C77.6187 132.757 77.6522 133.084 77.6149 133.406C77.5776 133.728 77.4706 134.038 77.301 134.315C77.1314 134.591 76.9034 134.828 76.633 135.007C76.3626 135.187 76.0562 135.305 75.7353 135.354C75.4144 135.403 75.0867 135.381 74.7749 135.291V135.291Z" fill="#FF49BC"/>
<path d="M68.6769 134.942C69.1269 133.593 71.5789 133.208 71.5789 133.208C71.5789 133.208 73.2965 135.043 72.8465 136.337C72.7906 136.651 72.6675 136.949 72.4857 137.212C72.3039 137.474 72.0677 137.694 71.7931 137.857C71.5184 138.02 71.2118 138.122 70.8942 138.156C70.5766 138.19 70.2553 138.155 69.9524 138.054C69.6496 137.952 69.3721 137.787 69.139 137.569C68.9058 137.351 68.7224 137.085 68.6013 136.79C68.4802 136.495 68.4244 136.177 68.4374 135.858C68.4504 135.539 68.5321 135.227 68.6769 134.942Z" fill="#FF49BC"/>
<path d="M69.2278 130.125C69.4115 131.538 71.7442 132.392 71.7442 132.392C71.7442 132.392 73.7739 130.969 73.581 129.556C73.5854 129.238 73.5212 128.922 73.3927 128.631C73.2642 128.34 73.0745 128.079 72.8364 127.868C72.5983 127.656 72.3177 127.498 72.0131 127.404C71.7085 127.31 71.3872 127.283 71.0711 127.324C70.7551 127.366 70.4515 127.474 70.1812 127.643C69.9109 127.812 69.6802 128.036 69.5045 128.302C69.3288 128.568 69.2123 128.868 69.163 129.183C69.1137 129.497 69.1326 129.819 69.2186 130.125H69.2278Z" fill="#FF49BC"/>
<path d="M76.7496 109.94C75.3445 109.775 74.4536 107.463 74.4536 107.463C74.4536 107.463 75.8494 105.408 77.2638 105.573C77.5877 105.557 77.9114 105.611 78.212 105.733C78.5126 105.855 78.7831 106.041 79.0046 106.277C79.2261 106.514 79.3931 106.796 79.4943 107.104C79.5955 107.412 79.6282 107.738 79.5903 108.06C79.5524 108.382 79.4447 108.692 79.2748 108.968C79.1049 109.244 78.8768 109.479 78.6064 109.658C78.336 109.837 78.0297 109.955 77.7091 110.004C77.3884 110.052 77.061 110.031 76.7496 109.94V109.94Z" fill="#D04757"/>
<path d="M70.6699 109.61C71.1199 108.27 73.5719 107.876 73.5719 107.876C73.5719 107.876 75.2987 109.711 74.8395 111.014C74.7817 111.327 74.6571 111.623 74.4744 111.884C74.2917 112.145 74.0551 112.363 73.7805 112.525C73.5059 112.686 73.1998 112.786 72.8829 112.819C72.5661 112.852 72.2458 112.816 71.9439 112.715C71.642 112.613 71.3657 112.448 71.1333 112.23C70.901 112.012 70.7181 111.747 70.5972 111.453C70.4764 111.158 70.4204 110.841 70.4329 110.523C70.4454 110.205 70.5263 109.894 70.6699 109.61Z" fill="#FF49BC"/>
<path d="M71.2026 104.811C71.3863 106.215 73.719 107.068 73.719 107.068C73.719 107.068 75.7579 105.646 75.5558 104.233C75.5589 103.915 75.4935 103.6 75.3641 103.309C75.2348 103.019 75.0445 102.759 74.806 102.549C74.5676 102.338 74.2865 102.181 73.982 102.088C73.6775 101.995 73.3568 101.969 73.0412 102.01C72.7256 102.052 72.4226 102.161 72.1529 102.33C71.8831 102.499 71.6529 102.724 71.4777 102.99C71.3025 103.255 71.1864 103.555 71.1374 103.87C71.0883 104.184 71.1075 104.505 71.1934 104.811H71.2026Z" fill="#FF49BC"/>
<path d="M78.1091 153.981C76.7866 154.504 74.9131 152.88 74.9131 152.88C74.9131 152.88 75.1794 150.412 76.5019 149.889C76.7789 149.731 77.0864 149.636 77.4037 149.608C77.721 149.58 78.0405 149.62 78.3407 149.726C78.641 149.833 78.9149 150.002 79.1439 150.223C79.3729 150.444 79.5515 150.712 79.6679 151.008C79.7842 151.305 79.8354 151.622 79.8181 151.94C79.8008 152.258 79.7155 152.568 79.5677 152.85C79.4198 153.132 79.213 153.379 78.9614 153.574C78.7097 153.769 78.4191 153.908 78.1091 153.981V153.981Z" fill="#FF49BC"/>
<path d="M72.5708 156.504C72.332 155.1 74.3065 153.604 74.3065 153.604C74.3065 153.604 76.6669 154.366 76.9057 155.77C77.0048 156.073 77.0373 156.394 77.0009 156.712C76.9646 157.029 76.8602 157.334 76.6949 157.607C76.5296 157.881 76.3075 158.115 76.0433 158.295C75.7792 158.474 75.4792 158.595 75.1641 158.648C74.8491 158.701 74.5263 158.686 74.2177 158.604C73.9091 158.521 73.6219 158.373 73.3758 158.169C73.1296 157.966 72.9304 157.712 72.7914 157.424C72.6525 157.137 72.5773 156.823 72.5708 156.504V156.504Z" fill="#D04757"/>
<path d="M70.7892 152.008C71.6158 153.164 74.0772 152.815 74.0772 152.815C74.0772 152.815 75.1977 150.604 74.3712 149.448C74.2281 149.158 74.0237 148.902 73.7718 148.699C73.52 148.496 73.2269 148.349 72.9128 148.271C72.5988 148.192 72.2713 148.182 71.9532 148.242C71.635 148.303 71.3338 148.431 71.0704 148.62C70.8071 148.808 70.5879 149.051 70.428 149.332C70.2682 149.614 70.1716 149.926 70.1448 150.249C70.1181 150.571 70.1618 150.896 70.2731 151.199C70.3844 151.503 70.5605 151.779 70.7892 152.008V152.008Z" fill="#FF49BC"/>
<path d="M60.5673 173.588C61.9725 173.808 62.7806 176.157 62.7806 176.157C62.7806 176.157 61.3112 178.148 59.9061 177.937C59.5821 177.941 59.2611 177.875 58.9653 177.743C58.6694 177.611 58.4059 177.416 58.193 177.172C57.9802 176.928 57.823 176.641 57.7325 176.33C57.642 176.02 57.6202 175.693 57.6688 175.373C57.7175 175.053 57.8353 174.747 58.0141 174.477C58.1929 174.207 58.4285 173.979 58.7043 173.81C58.9801 173.64 59.2895 173.532 59.6112 173.494C59.933 173.455 60.2593 173.487 60.5673 173.588V173.588Z" fill="#FF49BC"/>
<path d="M66.6473 174.166C66.1422 175.496 63.6807 175.799 63.6807 175.799C63.6807 175.799 62.0275 173.964 62.5235 172.624C62.5857 172.307 62.7165 172.006 62.9067 171.744C63.0968 171.482 63.3418 171.264 63.6246 171.106C63.9075 170.948 64.2214 170.854 64.5446 170.829C64.8677 170.805 65.1924 170.851 65.496 170.964C65.7995 171.078 66.0746 171.256 66.3023 171.486C66.5299 171.717 66.7046 171.994 66.8141 172.299C66.9237 172.603 66.9656 172.928 66.9368 173.251C66.908 173.573 66.8092 173.885 66.6473 174.166V174.166Z" fill="#FF49BC"/>
<path d="M65.9124 178.946C65.7838 177.533 63.4877 176.588 63.4877 176.588C63.4877 176.588 61.403 177.937 61.5316 179.341C61.5152 179.659 61.5674 179.976 61.6847 180.273C61.8021 180.569 61.9818 180.836 62.2117 181.057C62.4415 181.277 62.7162 181.446 63.017 181.551C63.3179 181.656 63.6378 181.695 63.9552 181.666C64.2726 181.637 64.58 181.54 64.8565 181.381C65.1331 181.223 65.3723 181.007 65.5579 180.748C65.7435 180.489 65.8712 180.194 65.9324 179.881C65.9935 179.569 65.9868 179.247 65.9124 178.937V178.946Z" fill="#B11E36"/>
<path d="M59.8784 108.766C60.9621 109.683 60.4295 112.105 60.4295 112.105C60.4295 112.105 58.1333 113.023 57.0404 112.105C56.7631 111.94 56.5252 111.716 56.3431 111.449C56.161 111.182 56.039 110.879 55.9857 110.56C55.9324 110.242 55.9488 109.916 56.0341 109.604C56.1194 109.293 56.2715 109.003 56.4797 108.756C56.6878 108.509 56.9471 108.31 57.2398 108.173C57.5324 108.036 57.8515 107.965 58.1748 107.963C58.498 107.961 58.8176 108.03 59.1118 108.163C59.4059 108.297 59.6675 108.493 59.8784 108.738V108.766Z" fill="#FF49BC"/>
<path d="M64.7739 112.417C63.6534 113.335 61.394 112.271 61.394 112.271C61.394 112.271 60.944 109.83 62.0644 108.958C62.2843 108.727 62.5518 108.545 62.8483 108.426C63.1448 108.307 63.4634 108.253 63.7826 108.268C64.1018 108.283 64.4142 108.367 64.6981 108.513C64.982 108.66 65.231 108.866 65.4279 109.118C65.6249 109.369 65.7652 109.66 65.8394 109.971C65.9135 110.281 65.9198 110.604 65.8578 110.917C65.7957 111.23 65.6665 111.526 65.4795 111.785C65.2924 112.044 65.0519 112.26 64.7739 112.417V112.417Z" fill="#FF49BC"/>
<path d="M61.66 116.124C62.2845 114.849 60.8152 112.849 60.8152 112.849C60.8152 112.849 58.3261 112.922 57.7016 114.197C57.5139 114.461 57.386 114.763 57.3267 115.081C57.2674 115.399 57.2783 115.726 57.3584 116.04C57.4384 116.354 57.5858 116.646 57.7904 116.897C57.9951 117.148 58.2521 117.351 58.5434 117.493C58.8346 117.635 59.1533 117.712 59.4772 117.718C59.8012 117.724 60.1226 117.66 60.4192 117.53C60.7158 117.4 60.9805 117.206 61.1948 116.964C61.4091 116.721 61.5677 116.434 61.66 116.124Z" fill="#D04757"/>
<path d="M13.1502 1.46241C14.2431 2.37993 13.7011 4.80218 13.7011 4.80218C13.7011 4.80218 11.4052 5.71969 10.3215 4.80218C10.051 4.63424 9.81969 4.41017 9.64342 4.14518C9.46716 3.88018 9.34989 3.58039 9.29969 3.26619C9.2495 2.952 9.26767 2.63068 9.35261 2.32404C9.43755 2.01739 9.58735 1.73256 9.79208 1.48884C9.99681 1.24513 10.2516 1.04825 10.5392 0.911477C10.8267 0.774707 11.1403 0.701334 11.4587 0.696211C11.7771 0.691088 12.0929 0.754347 12.3847 0.881797C12.6765 1.00925 12.9377 1.19785 13.1502 1.43486V1.46241Z" fill="#FF49BC"/>
<path d="M18.0544 5.11409C16.934 6.0316 14.6656 4.96725 14.6656 4.96725C14.6656 4.96725 14.2247 2.52667 15.3452 1.64586C15.5646 1.40784 15.8332 1.22038 16.1324 1.09649C16.4316 0.972607 16.7541 0.915302 17.0777 0.928489C17.4013 0.941677 17.7183 1.02506 18.0064 1.17288C18.2946 1.32069 18.5469 1.52943 18.7461 1.78451C18.9454 2.03959 19.0868 2.33494 19.1603 2.65006C19.2338 2.96518 19.2378 3.29242 19.1719 3.60924C19.1061 3.92605 18.9721 4.22478 18.7791 4.48464C18.5861 4.7445 18.3388 4.9593 18.0544 5.11409V5.11409Z" fill="#FF49BC"/>
<path d="M14.9321 8.82093C15.5566 7.53641 14.087 5.54535 14.087 5.54535C14.087 5.54535 11.6074 5.60965 10.9829 6.88499C10.8028 7.14784 10.6813 7.4463 10.6268 7.76017C10.5724 8.07403 10.5863 8.39593 10.6674 8.704C10.7485 9.01207 10.8948 9.29907 11.0968 9.54557C11.2987 9.79208 11.5514 9.99225 11.8376 10.1326C12.1239 10.2729 12.4371 10.3501 12.7558 10.3588C13.0745 10.3676 13.3914 10.3077 13.685 10.1833C13.9785 10.0589 14.2418 9.87282 14.457 9.63775C14.6721 9.40268 14.8342 9.12409 14.9321 8.82093V8.82093Z" fill="#FF49BC"/>
<path d="M20.1575 21.0697C20.9106 19.8677 23.3903 20.0512 23.3903 20.0512C23.3903 20.0512 24.6485 22.1891 23.8954 23.391C23.7724 23.691 23.5852 23.9605 23.3472 24.1808C23.1092 24.4012 22.8259 24.5669 22.5172 24.6667C22.2084 24.7665 21.8816 24.7978 21.5595 24.7584C21.2374 24.7191 20.9277 24.61 20.6521 24.4389C20.3765 24.2677 20.1416 24.0386 19.9637 23.7674C19.7859 23.4963 19.6694 23.1897 19.6223 22.869C19.5752 22.5482 19.5987 22.2211 19.6911 21.9103C19.7835 21.5996 19.9427 21.3127 20.1575 21.0697Z" fill="#FF49BC"/>
<path d="M23.0597 15.7115C24.0884 16.6933 23.3997 19.0695 23.3997 19.0695C23.3997 19.0695 21.0394 19.8678 20.0108 18.8769C19.7508 18.6917 19.5337 18.4527 19.3745 18.1761C19.2153 17.8996 19.1177 17.5919 19.0881 17.2743C19.0586 16.9566 19.0979 16.6363 19.2034 16.3353C19.3089 16.0342 19.4782 15.7594 19.6996 15.5295C19.921 15.2996 20.1895 15.1201 20.4866 15.0032C20.7837 14.8863 21.1025 14.8347 21.4214 14.852C21.7402 14.8693 22.0517 14.9549 22.3344 15.1032C22.6171 15.2516 22.8645 15.4591 23.0597 15.7115V15.7115Z" fill="#D04757"/>
<path d="M27.1742 18.2621C25.8242 17.8216 24.0518 19.565 24.0518 19.565C24.0518 19.565 24.4742 22.0147 25.8242 22.4459C26.1104 22.5855 26.4233 22.662 26.7417 22.6703C27.0601 22.6785 27.3767 22.6183 27.6698 22.4937C27.9628 22.369 28.2256 22.1829 28.4404 21.948C28.6552 21.713 28.8169 21.4347 28.9146 21.1318C29.0124 20.829 29.0438 20.5088 29.0068 20.1927C28.9698 19.8767 28.8653 19.5722 28.7003 19.3001C28.5352 19.0279 28.3135 18.7944 28.0503 18.6153C27.787 18.4362 27.4882 18.3157 27.1742 18.2621V18.2621Z" fill="#FF49BC"/>
<path d="M43.2006 14.2252C42.5485 15.4822 40.0595 15.4913 40.0595 15.4913C40.0595 15.4913 38.6361 13.4636 39.2881 12.1974C39.3897 11.8912 39.5565 11.6108 39.7772 11.3753C39.9978 11.1398 40.2671 10.955 40.5662 10.8335C40.8653 10.7121 41.187 10.6569 41.5095 10.6718C41.832 10.6867 42.1476 10.7714 42.4342 10.9199C42.7208 11.0684 42.9717 11.2774 43.1696 11.5322C43.3675 11.787 43.5078 12.0816 43.5806 12.3958C43.6535 12.7101 43.6572 13.0364 43.5916 13.3522C43.526 13.668 43.3926 13.9659 43.2006 14.2252V14.2252Z" fill="#FF49BC"/>
<path d="M40.7115 19.8035C39.6094 18.886 40.1146 16.4729 40.1146 16.4729C40.1146 16.4729 42.4014 15.5004 43.4943 16.3996C43.7764 16.5577 44.0208 16.7753 44.21 17.0374C44.3992 17.2996 44.5288 17.5997 44.5898 17.9171C44.6508 18.2344 44.6418 18.5613 44.5633 18.8748C44.4849 19.1883 44.3387 19.481 44.1353 19.7323C43.9319 19.9836 43.6762 20.1874 43.3857 20.3297C43.0953 20.472 42.7773 20.5493 42.4539 20.5561C42.1305 20.5628 41.8094 20.499 41.5133 20.369C41.2171 20.239 40.9528 20.0461 40.7391 19.8035H40.7115Z" fill="#FF49BC"/>
<path d="M36.4133 17.5831C37.7909 17.9042 39.4257 16.0325 39.4257 16.0325C39.4257 16.0325 38.8104 13.6286 37.4236 13.28C37.1249 13.1568 36.803 13.0999 36.4801 13.1132C36.1572 13.1265 35.8409 13.2097 35.5534 13.3571C35.2658 13.5044 35.0138 13.7124 34.8146 13.9667C34.6154 14.2209 34.4739 14.5154 34.3998 14.8296C34.3257 15.1439 34.3208 15.4706 34.3854 15.7869C34.4501 16.1032 34.5828 16.4018 34.7742 16.6619C34.9657 16.9219 35.2114 17.1373 35.4944 17.2932C35.7774 17.4491 36.0909 17.5417 36.4133 17.5647V17.5831Z" fill="#FF49BC"/>
<path d="M61.3753 26.3087C60.264 27.2262 57.9956 26.1986 57.9956 26.1986C57.9956 26.1986 57.518 23.7581 58.6293 22.8772C58.8475 22.6468 59.1127 22.4657 59.4069 22.3463C59.701 22.2268 60.0174 22.1716 60.3347 22.1845C60.652 22.1975 60.9627 22.2781 61.2461 22.4212C61.5296 22.5642 61.7791 22.7662 61.9778 23.0137C62.1764 23.2611 62.3197 23.5482 62.3979 23.8557C62.4762 24.1631 62.4878 24.4838 62.4316 24.796C62.3754 25.1083 62.2527 25.4048 62.0722 25.6657C61.8916 25.9267 61.657 26.1459 61.3845 26.3087H61.3753Z" fill="#D04757"/>
<path d="M56.8386 30.3917C56.1957 29.1255 57.6469 27.1069 57.6469 27.1069C57.6469 27.1069 60.1265 27.107 60.7694 28.419C60.952 28.6802 61.0763 28.9775 61.1338 29.2908C61.1912 29.6042 61.1803 29.9263 61.1021 30.2351C61.024 30.544 60.8803 30.8324 60.6806 31.0808C60.481 31.3292 60.2301 31.5319 59.9452 31.6749C59.6602 31.8179 59.3479 31.8979 59.0292 31.9096C58.7106 31.9213 58.393 31.8644 58.0983 31.7426C57.8036 31.6209 57.5387 31.4373 57.3214 31.2041C57.104 30.971 56.9393 30.694 56.8386 30.3917Z" fill="#FF49BC"/>
<path d="M53.8078 26.6206C54.9374 27.4831 57.1876 26.428 57.1876 26.428C57.1876 26.428 57.6009 23.9783 56.4713 23.125C56.2481 22.8968 55.9784 22.7193 55.6804 22.6046C55.3825 22.4899 55.0632 22.4406 54.7445 22.4603C54.4258 22.4799 54.1151 22.5678 53.8335 22.7182C53.5519 22.8686 53.3061 23.0778 53.1127 23.3316C52.9193 23.5854 52.783 23.878 52.7129 24.1892C52.6428 24.5004 52.6407 24.8231 52.7066 25.1352C52.7726 25.4473 52.9052 25.7415 53.0952 25.9978C53.2852 26.2542 53.5282 26.4666 53.8078 26.6206V26.6206Z" fill="#FF49BC"/>
<path d="M75.684 54.0635C74.5728 54.981 72.2952 53.9534 72.2952 53.9534C72.2952 53.9534 71.8268 51.5128 72.9288 50.632C73.145 50.3909 73.4111 50.1998 73.7087 50.0718C74.0062 49.9438 74.3281 49.882 74.652 49.8908C74.9758 49.8996 75.2939 49.9788 75.584 50.1227C75.8742 50.2667 76.1293 50.472 76.332 50.7245C76.5347 50.977 76.6801 51.2705 76.7578 51.5847C76.8356 51.8989 76.8437 52.2262 76.782 52.544C76.7204 52.8617 76.5903 53.1622 76.4007 53.4246C76.211 53.687 75.9665 53.905 75.684 54.0635V54.0635Z" fill="#FF49BC"/>
<path d="M71.1475 58.1465C70.5047 56.8803 71.9464 54.8617 71.9464 54.8617C71.9464 54.8617 74.4355 54.8617 75.0783 56.1738C75.261 56.4349 75.3853 56.7322 75.4427 57.0456C75.5001 57.359 75.4893 57.681 75.4111 57.9899C75.3329 58.2987 75.1892 58.5872 74.9895 58.8356C74.7899 59.084 74.5391 59.2867 74.2541 59.4297C73.9692 59.5727 73.6566 59.6527 73.3379 59.6644C73.0193 59.6761 72.7019 59.6192 72.4072 59.4974C72.1125 59.3757 71.8474 59.192 71.6301 58.9589C71.4127 58.7258 71.2482 58.4488 71.1475 58.1465V58.1465Z" fill="#FF49BC"/>
<path d="M68.1164 54.3754C69.246 55.2379 71.496 54.1828 71.496 54.1828C71.496 54.1828 71.9095 51.733 70.7799 50.8797C70.5567 50.6515 70.287 50.4741 69.989 50.3594C69.6911 50.2447 69.3718 50.1954 69.0531 50.215C68.7344 50.2346 68.4237 50.3226 68.1421 50.473C67.8605 50.6233 67.6147 50.8326 67.4213 51.0864C67.2279 51.3402 67.0916 51.6328 67.0215 51.944C66.9514 52.2552 66.9492 52.5778 67.0152 52.8899C67.0812 53.202 67.2138 53.4962 67.4038 53.7526C67.5938 54.0089 67.8368 54.2213 68.1164 54.3754V54.3754Z" fill="#FF49BC"/>
<path d="M40.6287 32.9423C41.5471 31.8504 43.9716 32.3826 43.9716 32.3826C43.9716 32.3826 44.89 34.6672 43.9716 35.7591C43.808 36.039 43.5854 36.28 43.3191 36.4651C43.0528 36.6503 42.7492 36.7753 42.4296 36.8313C42.1101 36.8872 41.7821 36.873 41.4686 36.7894C41.1552 36.7058 40.8637 36.5548 40.6146 36.3472C40.3654 36.1395 40.1645 35.8802 40.026 35.587C39.8875 35.2939 39.8147 34.9742 39.8125 34.65C39.8104 34.3259 39.8791 34.0052 40.0137 33.7103C40.1483 33.4153 40.3456 33.1532 40.5919 32.9423H40.6287Z" fill="#FF49BC"/>
<path d="M44.2659 28.0335C45.1843 29.1529 44.1283 31.4192 44.1283 31.4192C44.1283 31.4192 41.6852 31.8687 40.8127 30.7585C40.5795 30.5397 40.396 30.2733 40.2748 29.9774C40.1537 29.6815 40.0978 29.363 40.1107 29.0436C40.1236 28.7241 40.2049 28.4112 40.3495 28.1259C40.4941 27.8407 40.6985 27.5899 40.9486 27.3905C41.1988 27.1912 41.4888 27.0478 41.7993 26.9703C42.1098 26.8928 42.4333 26.8829 42.748 26.9413C43.0626 26.9997 43.361 27.125 43.6229 27.3087C43.8848 27.4924 44.1041 27.7302 44.2659 28.006V28.0335Z" fill="#FF49BC"/>
<path d="M47.9853 31.1348C46.6995 30.5109 44.7065 31.9973 44.7065 31.9973C44.7065 31.9973 44.7892 34.4746 46.0658 35.0893C46.3297 35.2679 46.629 35.3877 46.9434 35.4405C47.2577 35.4934 47.5799 35.478 47.8878 35.3955C48.1957 35.313 48.4822 35.1654 48.7279 34.9625C48.9737 34.7596 49.1729 34.5063 49.312 34.2197C49.4511 33.9331 49.5269 33.62 49.5342 33.3016C49.5415 32.9832 49.48 32.667 49.3542 32.3744C49.2283 32.0818 49.041 31.8196 48.8048 31.6057C48.5686 31.3918 48.2891 31.2312 47.9853 31.1348Z" fill="#FF49BC"/>
<path d="M65.1595 75.2305C66.0779 74.1478 68.5024 74.6708 68.5024 74.6708C68.5024 74.6708 69.4208 76.9646 68.5024 78.0564C68.3369 78.3334 68.1133 78.5712 67.8468 78.7535C67.5803 78.9357 67.2775 79.0581 66.9591 79.112C66.6407 79.1659 66.3145 79.1502 66.0028 79.0659C65.6911 78.9815 65.4013 78.8306 65.1537 78.6236C64.9061 78.4165 64.7065 78.1582 64.5685 77.8666C64.4305 77.5749 64.3575 77.2567 64.3546 76.9341C64.3516 76.6115 64.4188 76.2922 64.5514 75.998C64.6841 75.7039 64.8789 75.442 65.1228 75.2305H65.1595Z" fill="#FF49BC"/>
<path d="M68.8328 70.3217C69.7512 71.4411 68.6952 73.7074 68.6952 73.7074C68.6952 73.7074 66.2521 74.1662 65.3796 73.0468C65.1464 72.828 64.9629 72.5615 64.8417 72.2656C64.7206 71.9697 64.6647 71.6512 64.6776 71.3318C64.6905 71.0123 64.7718 70.6994 64.9164 70.4141C65.061 70.1289 65.2654 69.8781 65.5155 69.6787C65.7657 69.4794 66.0557 69.336 66.3662 69.2585C66.6767 69.181 67.0002 69.1711 67.3149 69.2295C67.6295 69.2879 67.9279 69.4132 68.1898 69.5969C68.4517 69.7806 68.671 70.0185 68.8328 70.2943V70.3217Z" fill="#FF49BC"/>
<path d="M72.5068 73.4229C71.2302 72.8082 69.228 74.2854 69.228 74.2854C69.228 74.2854 69.3107 76.7627 70.5964 77.3775C70.8606 77.5578 71.1607 77.6792 71.4761 77.7331C71.7914 77.787 72.1147 77.7721 72.4238 77.6897C72.733 77.6073 73.0206 77.4592 73.2671 77.2555C73.5137 77.0518 73.7133 76.7973 73.8523 76.5094C73.9914 76.2216 74.0668 75.9071 74.073 75.5876C74.0792 75.268 74.0162 74.9509 73.8884 74.6578C73.7607 74.3648 73.571 74.1027 73.3326 73.8896C73.0941 73.6765 72.8125 73.5172 72.5068 73.4229V73.4229Z" fill="#FF49BC"/>
<path d="M52.5681 46.1269C53.9549 45.8149 55.5713 47.6959 55.5713 47.6959C55.5713 47.6959 54.9376 50.0998 53.5508 50.4485C53.2509 50.573 52.9273 50.6307 52.6028 50.6174C52.2783 50.6041 51.9606 50.5202 51.6719 50.3715C51.3832 50.2229 51.1304 50.0132 50.9313 49.7569C50.7321 49.5006 50.5912 49.2039 50.5187 48.8876C50.4462 48.5714 50.4437 48.243 50.5113 47.9256C50.5789 47.6083 50.7151 47.3095 50.9102 47.0501C51.1053 46.7907 51.3548 46.577 51.6412 46.4239C51.9275 46.2708 52.2438 46.182 52.5681 46.1636V46.1269Z" fill="#B11E36"/>
<path d="M58.4367 44.4204C58.4367 45.8333 56.2786 47.0262 56.2786 47.0262C56.2786 47.0262 54.0559 45.916 54.0375 44.4938C53.9869 44.1796 54.0045 43.8581 54.0891 43.5512C54.1737 43.2444 54.3235 42.9592 54.5281 42.7152C54.7327 42.4711 54.9874 42.2739 55.275 42.1369C55.5626 41.9998 55.8762 41.9262 56.1947 41.9208C56.5133 41.9155 56.8295 41.9787 57.1214 42.1061C57.4134 42.2335 57.6745 42.4221 57.8871 42.6592C58.0998 42.8962 58.2589 43.1761 58.3538 43.48C58.4486 43.7839 58.4768 44.1046 58.4367 44.4204V44.4204Z" fill="#FF49BC"/>
<path d="M59.5206 49.1272C58.8778 47.8702 56.3887 47.8336 56.3887 47.8336C56.3887 47.8336 54.9561 49.8613 55.599 51.1275C55.6971 51.436 55.8612 51.7194 56.08 51.9582C56.2988 52.197 56.5669 52.3854 56.8659 52.5101C57.1649 52.6349 57.4874 52.6931 57.8112 52.6807C58.135 52.6684 58.4522 52.5858 58.7408 52.4386C59.0294 52.2914 59.2824 52.0831 59.4823 51.8284C59.6822 51.5736 59.8242 51.2784 59.8984 50.9633C59.9726 50.6482 59.9774 50.3207 59.9121 50.0037C59.8469 49.6866 59.7133 49.3875 59.5206 49.1272V49.1272Z" fill="#FF49BC"/>
<path d="M116.048 76.3682C114.725 76.9004 112.833 75.2947 112.833 75.2947C112.833 75.2947 113.082 72.8265 114.404 72.2944C114.68 72.1327 114.987 72.0323 115.305 72C115.623 71.9677 115.944 72.0043 116.246 72.1072C116.549 72.2102 116.825 72.377 117.057 72.5965C117.289 72.8159 117.471 73.0827 117.591 73.3788C117.71 73.6749 117.765 73.9932 117.75 74.3121C117.735 74.631 117.651 74.9429 117.505 75.2266C117.358 75.5103 117.153 75.7592 116.901 75.9562C116.65 76.1532 116.359 76.2938 116.048 76.3682V76.3682Z" fill="#D04757"/>
<path d="M110.529 78.9832C110.281 77.5885 112.237 76.0654 112.237 76.0654C112.237 76.0654 114.606 76.8179 114.854 78.2125C114.958 78.5154 114.994 78.8369 114.961 79.1552C114.929 79.4735 114.828 79.781 114.665 80.0566C114.502 80.3322 114.282 80.5694 114.019 80.752C113.756 80.9345 113.456 81.0581 113.141 81.1143C112.825 81.1705 112.502 81.1579 112.192 81.0775C111.882 80.997 111.593 80.8506 111.345 80.6482C111.097 80.4458 110.895 80.1922 110.754 79.9048C110.614 79.6174 110.536 79.303 110.529 78.9832V78.9832Z" fill="#FF49BC"/>
<path d="M108.71 74.5057C109.546 75.6526 112.007 75.2856 112.007 75.2856C112.007 75.2856 113.1 73.0653 112.264 71.9184C112.116 71.6361 111.908 71.389 111.656 71.194C111.403 70.999 111.112 70.8606 110.801 70.7883C110.49 70.716 110.167 70.7114 109.854 70.775C109.541 70.8385 109.246 70.9685 108.988 71.1563C108.73 71.3441 108.515 71.5852 108.359 71.8633C108.203 72.1413 108.108 72.4498 108.082 72.7676C108.055 73.0854 108.098 73.4051 108.206 73.705C108.315 74.005 108.487 74.2781 108.71 74.5057V74.5057Z" fill="#FF49BC"/>
<path d="M103.732 92.5714C102.364 92.1861 101.84 89.7639 101.84 89.7639C101.84 89.7639 103.549 87.9289 104.917 88.3326C105.239 88.3683 105.548 88.4734 105.825 88.6406C106.102 88.8078 106.339 89.0331 106.52 89.3009C106.701 89.5687 106.822 89.8726 106.873 90.1915C106.925 90.5105 106.907 90.8369 106.82 91.1481C106.733 91.4594 106.579 91.7479 106.37 91.994C106.16 92.24 105.899 92.4375 105.605 92.5729C105.312 92.7083 104.992 92.7783 104.669 92.7781C104.345 92.7778 104.026 92.7073 103.732 92.5714V92.5714Z" fill="#FF49BC"/>
<path d="M97.7995 91.2778C98.4515 90.0208 100.931 90.0117 100.931 90.0117C100.931 90.0117 102.355 92.0485 101.703 93.3055C101.598 93.6061 101.429 93.8807 101.208 94.1104C100.988 94.3402 100.72 94.5199 100.424 94.6373C100.128 94.7547 99.8095 94.8071 99.4912 94.7909C99.1729 94.7746 98.8619 94.6902 98.5791 94.5433C98.2963 94.3964 98.0485 94.1904 97.8524 93.9394C97.6563 93.6884 97.5165 93.3982 97.4425 93.0884C97.3686 92.7787 97.3621 92.4568 97.4237 92.1444C97.4853 91.832 97.6135 91.5364 97.7995 91.2778V91.2778Z" fill="#FF49BC"/>
<path d="M99.1402 86.6168C99.1402 88.039 101.271 89.2501 101.271 89.2501C101.271 89.2501 103.503 88.1583 103.539 86.7361C103.602 86.418 103.595 86.0899 103.518 85.7749C103.441 85.4599 103.296 85.1655 103.093 84.9122C102.89 84.6589 102.635 84.4528 102.344 84.3083C102.054 84.1638 101.735 84.0844 101.41 84.0756C101.086 84.0669 100.763 84.1289 100.465 84.2574C100.167 84.386 99.901 84.5778 99.6848 84.8198C99.4687 85.0617 99.308 85.3478 99.214 85.6582C99.1199 85.9686 99.0947 86.2957 99.1402 86.6168V86.6168Z" fill="#FF49BC"/>
<path d="M94.0614 76.9096C93.9695 78.3225 91.7102 79.341 91.7102 79.341C91.7102 79.341 89.5795 78.0656 89.6622 76.6434C89.6304 76.3224 89.6689 75.9983 89.7747 75.6934C89.8806 75.3886 90.0514 75.1105 90.2754 74.8781C90.4994 74.6457 90.7712 74.4646 91.0721 74.3473C91.3729 74.23 91.6957 74.1794 92.018 74.1989C92.3404 74.2184 92.6546 74.3075 92.9391 74.4602C93.2236 74.6129 93.4716 74.8254 93.6658 75.0832C93.8601 75.3409 93.9962 75.6376 94.0645 75.953C94.1328 76.2683 94.1316 76.5947 94.0614 76.9096V76.9096Z" fill="#B11E36"/>
<path d="M94.0525 82.9651C92.6841 82.5889 92.1514 80.2126 92.1514 80.2126C92.1514 80.2126 93.8505 78.3776 95.2189 78.7721C95.542 78.8045 95.8541 78.907 96.1335 79.0723C96.4129 79.2376 96.6528 79.4618 96.8364 79.7293C97.0201 79.9968 97.1432 80.3011 97.197 80.621C97.2508 80.9409 97.2339 81.2687 97.1479 81.5814C97.0618 81.8942 96.9085 82.1845 96.6985 82.432C96.4886 82.6794 96.2273 82.8781 95.9326 83.0143C95.6379 83.1504 95.3169 83.2206 94.9922 83.22C94.6675 83.2194 94.3468 83.1481 94.0525 83.011V82.9651Z" fill="#FF49BC"/>
<path d="M89.2215 82.6807C90.6175 82.4238 91.3431 80.0474 91.3431 80.0474C91.3431 80.0474 89.8002 78.1022 88.4043 78.3591C88.0801 78.3659 87.7612 78.4432 87.4699 78.5856C87.1787 78.728 86.9222 78.9321 86.7179 79.1837C86.5136 79.4353 86.3666 79.7282 86.2872 80.0423C86.2078 80.3564 86.1978 80.684 86.258 81.0023C86.3182 81.3206 86.4472 81.6219 86.6359 81.8854C86.8245 82.1489 87.0684 82.3681 87.3504 82.5278C87.6325 82.6876 87.9459 82.784 88.2691 82.8104C88.5922 82.8368 88.9172 82.7926 89.2215 82.6807Z" fill="#FF49BC"/>
<path d="M34.4114 197.893H105.992C106.239 197.893 106.483 197.948 106.706 198.055C106.929 198.161 107.125 198.315 107.281 198.507C107.436 198.698 107.547 198.922 107.606 199.162C107.664 199.402 107.668 199.651 107.617 199.893L106.653 204.343C106.572 204.711 106.367 205.041 106.074 205.278C105.78 205.514 105.414 205.644 105.037 205.646H36.0922C35.7553 205.644 35.4268 205.541 35.1498 205.349C34.8728 205.157 34.6602 204.887 34.5399 204.572L32.8594 200.132C32.7662 199.881 32.735 199.611 32.7684 199.346C32.8017 199.081 32.8987 198.828 33.0511 198.608C33.2035 198.388 33.4067 198.208 33.6435 198.084C33.8803 197.959 34.1438 197.894 34.4114 197.893Z" fill="#26A392" stroke="black" stroke-miterlimit="10"/>
<path d="M40.0869 212.637C40.8859 212.637 101.216 205.646 101.216 205.646H39.3613L40.0869 212.637Z" fill="black"/>
</svg>
