<svg width="479" height="434" viewBox="0 0 479 434" fill="none" xmlns="http://www.w3.org/2000/svg">
<g clip-path="url(#clip0_328_3838)">
<path d="M241.877 107.879C242.979 115.577 252.264 151.553 252.264 151.553L334.287 116.687L343.094 127.697C343.094 127.697 289.184 157.37 256.177 172.757C223.169 188.143 217.668 148.589 211.074 104.64" fill="#FFE749"/>
<path d="M241.877 107.879C242.979 115.577 252.264 151.553 252.264 151.553L334.287 116.687L343.094 127.697C343.094 127.697 289.184 157.37 256.177 172.757C223.169 188.143 217.668 148.589 211.074 104.64" stroke="black" stroke-width="1.56" stroke-miterlimit="10"/>
<path d="M201.293 92.6393C205.885 86.6387 216.823 73.7936 223.481 70.4722H224.84L229.001 69.0868C230.388 67.7013 233.446 64.9304 234.511 64.9304C235.898 64.9304 252.549 84.3266 255.322 88.4829C258.096 92.6392 256.709 93.988 256.709 96.7956C256.709 99.016 254.872 98.6307 253.954 98.1811L248.443 136.983L252.604 150.837L312.236 125.89L319.17 139.754C302.997 148.066 268.658 165.802 260.925 170.233C253.192 174.665 246.588 175.738 244.283 175.738L242.887 186.822H183.255C174.374 186.822 169.387 184.069 168.001 182.666C167.124 158.928 172.887 135.417 184.642 114.77C189.087 107.053 197.592 96.7956 201.293 92.6393Z" fill="#FFE749"/>
<path d="M257.279 90.3179L256.36 98.3645C256.333 98.5476 256.26 98.721 256.149 98.8692C256.038 99.019 255.889 99.1363 255.717 99.2086C255.547 99.2925 255.354 99.3213 255.166 99.2912C254.98 99.2694 254.803 99.1999 254.652 99.0894L254.165 98.7223L254.395 95.6487C254.593 93.0443 254.079 90.4351 252.908 88.0999C251.736 85.7647 249.952 83.7914 247.745 82.3907L229.745 70.9584C229.09 70.5563 228.382 70.2475 227.642 70.0409L231.719 65.545C232.02 65.2184 232.386 64.9589 232.794 64.7835C233.205 64.6085 233.651 64.5271 234.098 64.545C234.541 64.5559 234.976 64.6623 235.375 64.8569C235.774 65.0528 236.126 65.3349 236.403 65.6827L257.279 90.3179Z" stroke="black" stroke-width="1.56" stroke-miterlimit="10"/>
<path d="M227.678 69.9767C228.419 70.1833 229.126 70.4921 229.781 70.8942L247.801 82.3447C250.007 83.7454 251.792 85.7188 252.963 88.054C254.134 90.3892 254.648 92.9983 254.45 95.6027L254.22 98.6765" stroke="black" stroke-width="1.56" stroke-miterlimit="10"/>
<path d="M254.229 98.704L249.123 138.396" stroke="black" stroke-width="1.56" stroke-miterlimit="10"/>
<path d="M168.248 184.235C163.427 128.147 203.313 86.8222 220.294 71.6741C221.278 70.7795 222.472 70.1482 223.766 69.839C225.057 69.5374 226.404 69.5721 227.678 69.94" stroke="black" stroke-width="1.56" stroke-miterlimit="10"/>
<path d="M276.271 36.9738C276.492 28.9731 267.941 15.871 250.262 20.6971C232.583 25.5232 225.52 40.5612 228.817 48.5069C232.114 56.4525 239.471 60.4988 246.864 56.214C246.864 56.214 242.731 48.2866 248.591 44.3597C254.45 40.4327 255.267 48.7729 254.312 51.92C253.357 55.0671 259.501 50.085 262.201 45.1855C263.678 45.2025 265.143 44.923 266.509 44.3635C267.875 43.804 269.115 42.9758 270.155 41.9283C271.944 39.9915 274.004 38.3228 276.271 36.9738Z" fill="black"/>
<path d="M248.6 20.0731C249.402 19.5877 250.036 18.8685 250.417 18.0123C250.798 17.156 250.907 16.2039 250.73 15.2837C249.297 7.83348 241.133 -3.15832 228.11 1.86965C212.864 7.74174 220.046 21.5319 227.008 21.4126C231.361 21.4741 235.524 23.2053 238.635 26.2479L248.6 20.0731Z" fill="black"/>
<path d="M250.299 64.5084C250.299 64.5084 263.726 76.803 266.545 75.179C269.365 73.555 273.112 61.9485 273.112 61.9485C274.648 62.1615 276.211 62.0553 277.704 61.6366C279.137 60.9026 275.178 55.0579 275.445 50.5438C275.711 46.0296 277.015 40.0933 275.591 37.3315" stroke="black" stroke-width="1.56" stroke-miterlimit="10"/>
<path d="M235.274 65.0221C238.228 62.272 240.887 59.2215 243.209 55.9203" stroke="black" stroke-width="1.56" stroke-miterlimit="10"/>
<path d="M258.27 71.1328C258.27 71.1328 250.556 80.1335 250.62 83.6201" stroke="black" stroke-width="1.56" stroke-miterlimit="10"/>
<path d="M275.628 37.3315C274.866 40.7722 268.832 47.8646 263.257 47.2591" stroke="black" stroke-width="1.56" stroke-miterlimit="10"/>
<path d="M239.976 27.8169C238.203 26.1011 232.968 22.1008 228.431 23.0275C223.894 23.9542 222.829 21.8256 222.829 21.8256" stroke="black" stroke-width="1.56" stroke-miterlimit="10"/>
<path d="M312.208 126.064L319.656 140.35" stroke="black" stroke-width="1.56" stroke-miterlimit="10"/>
<path d="M335.389 117.779C335.389 117.779 337.786 111.98 339.237 110.723C340.155 109.907 342.819 110.834 344.582 111.641C344.745 111.707 344.885 111.819 344.986 111.962C345.088 112.108 345.149 112.279 345.161 112.457C345.178 112.637 345.145 112.818 345.066 112.98C344.986 113.142 344.863 113.279 344.711 113.375L341.955 115.146C341.955 115.146 341.882 118.008 343.957 118.119C345.39 118.119 354.354 113.724 359.203 111.219C359.313 111.182 359.432 111.182 359.543 111.219C359.656 111.255 359.756 111.326 359.827 111.421C359.89 111.519 359.919 111.635 359.91 111.751C359.902 111.871 359.853 111.984 359.772 112.072C354.969 116.559 349.67 123.082 341.983 126.651" stroke="black" stroke-width="1.56" stroke-miterlimit="10"/>
<path d="M341.965 115.082L369.057 102.291C369.186 102.238 369.323 102.207 369.461 102.2C369.597 102.2 369.731 102.228 369.856 102.282C369.981 102.336 370.093 102.414 370.187 102.512C370.279 102.612 370.348 102.731 370.389 102.86L370.821 104.163C370.922 104.429 370.922 104.723 370.821 104.989C370.713 105.255 370.51 105.471 370.251 105.595L343.618 118.339L341.965 115.082Z" fill="black"/>
<path d="M210.532 105.42C210.532 105.42 205.829 183.253 242.979 182.978L243.695 176.105C243.695 176.105 231.278 177.023 224.629 163.746C217.98 150.47 210.532 105.42 210.532 105.42Z" fill="black"/>
<path d="M242.364 107.815L250.014 130.945L249.095 137.964L244.246 119.137L242.364 107.815Z" fill="black"/>
<path d="M238.387 61.9485L250.602 81.8768L235.485 64.8295L238.387 61.9485Z" fill="black"/>
<path opacity="0.5" d="M219.55 433.367C219.838 399.188 233.631 366.506 257.925 342.439C282.22 318.372 315.048 304.868 349.261 304.868C383.475 304.868 416.303 318.372 440.597 342.439C464.891 366.506 478.684 399.188 478.972 433.367H219.55Z" fill="white"/>
<path d="M250.464 184.528L333.488 424.917H318.169L192.237 194.924L250.464 184.528Z" fill="#00404C"/>
<path d="M479 433L1 433" stroke="black" stroke-width="1.18" stroke-miterlimit="10"/>
<path d="M321.695 432.67L318.655 424.935H334.039C340.192 424.935 343.608 427.394 348.338 430.312C348.527 430.407 348.677 430.565 348.763 430.759C348.849 430.952 348.866 431.17 348.809 431.374C348.753 431.578 348.628 431.756 348.455 431.879C348.282 432.001 348.072 432.06 347.861 432.046L321.695 432.67Z" stroke="black" stroke-miterlimit="10"/>
<path d="M270.182 231.835H175.357C172.202 231.835 169.644 234.39 169.644 237.542V239.588C169.644 242.74 172.202 245.295 175.357 245.295H270.182C273.337 245.295 275.895 242.74 275.895 239.588V237.542C275.895 234.39 273.337 231.835 270.182 231.835Z" fill="black" stroke="black" stroke-width="1.29" stroke-miterlimit="10"/>
<path d="M186.617 245.497L157.632 432.55" stroke="black" stroke-width="1.29" stroke-miterlimit="10"/>
<path d="M262.027 245.497L291.012 432.55" stroke="black" stroke-width="1.29" stroke-miterlimit="10"/>
<path d="M224.326 245.8V432.55" stroke="black" stroke-width="1.29" stroke-miterlimit="10"/>
<path d="M168.79 368.242L279.587 368.948" stroke="black" stroke-width="1.29" stroke-miterlimit="10"/>
<path d="M243.686 176.115L242.878 184.4" stroke="black" stroke-width="1.56" stroke-miterlimit="10"/>
<path d="M40.1586 371.646H102.004L95.8506 432.55H44.8976L40.1586 371.646Z" fill="#00404C" stroke="black" stroke-miterlimit="10"/>
<path d="M1 433.301C2.2581 433.283 44 418 44 418L45 433.301L1 433.301Z" fill="black"/>
<path d="M43.6577 296.657L69.5934 318.577C69.5934 318.577 69.1986 361.039 69.2354 363.893" stroke="#00404C" stroke-miterlimit="10"/>
<path d="M63.0453 313.044L69.9976 266.701L109.379 243.442" stroke="#00404C" stroke-miterlimit="10" stroke-linecap="round"/>
<path d="M86.2074 257.131L53.503 194.694L19.9262 176.362" stroke="#00404C" stroke-miterlimit="10" stroke-linecap="round"/>
<path d="M56.4511 297.043C55.5327 298.153 53.1266 297.694 53.1266 297.694C53.1266 297.694 52.1162 295.428 52.9979 294.318C53.1597 294.042 53.3791 293.804 53.641 293.62C53.9029 293.437 54.2012 293.311 54.5159 293.253C54.8305 293.195 55.1541 293.205 55.4645 293.282C55.775 293.36 56.0651 293.503 56.3152 293.702C56.5654 293.902 56.7698 294.152 56.9143 294.438C57.0589 294.723 57.1405 295.036 57.1534 295.355C57.1663 295.675 57.1102 295.993 56.989 296.289C56.8679 296.585 56.6844 296.851 56.4511 297.07V297.043Z" fill="#FF49BC"/>
<path d="M52.9522 302.007C52.0338 300.915 52.9522 298.621 52.9522 298.621C52.9522 298.621 55.3767 298.107 56.2859 299.199C56.5247 299.412 56.7149 299.673 56.8433 299.966C56.9717 300.258 57.0353 300.575 57.0298 300.895C57.0244 301.214 56.9502 301.529 56.8119 301.817C56.6736 302.105 56.4746 302.36 56.2287 302.564C55.9828 302.769 55.6956 302.917 55.3868 303.001C55.078 303.084 54.7549 303.1 54.4394 303.047C54.124 302.994 53.8238 302.873 53.5591 302.694C53.2945 302.514 53.0718 302.28 52.9062 302.007H52.9522Z" fill="#FF49BC"/>
<path d="M49.1498 299.006C50.4447 299.594 52.401 298.089 52.401 298.089C52.401 298.089 52.254 295.612 50.959 295.034C50.6912 294.864 50.3904 294.754 50.0765 294.711C49.7626 294.668 49.443 294.692 49.1392 294.782C48.8354 294.872 48.5544 295.026 48.315 295.233C48.0756 295.441 47.8834 295.697 47.7513 295.985C47.6192 296.272 47.5501 296.585 47.5488 296.902C47.5476 297.218 47.6143 297.531 47.7441 297.82C47.874 298.109 48.0641 298.367 48.3018 298.576C48.5395 298.785 48.8191 298.941 49.1222 299.034L49.1498 299.006Z" fill="#FF49BC"/>
<path d="M39.6076 289.62C40.6637 290.538 40.0668 292.969 40.0668 292.969C40.0668 292.969 37.7432 293.887 36.6779 292.905C36.4042 292.732 36.1714 292.501 35.9958 292.23C35.8202 291.958 35.7061 291.651 35.6611 291.331C35.6161 291.01 35.6414 290.684 35.7353 290.374C35.8292 290.065 35.9896 289.779 36.205 289.538C36.4205 289.296 36.6857 289.104 36.9828 288.975C37.2799 288.847 37.6017 288.784 37.9255 288.792C38.2492 288.8 38.5673 288.878 38.8578 289.021C39.1482 289.164 39.4041 289.368 39.6076 289.62Z" fill="#FF49BC"/>
<path d="M44.4018 293.373C43.2629 294.217 41.0221 293.134 41.0221 293.134C41.0221 293.134 40.6454 290.684 41.7842 289.84C42.0106 289.616 42.2828 289.443 42.582 289.333C42.8812 289.223 43.2005 289.179 43.5183 289.203C43.8362 289.228 44.145 289.32 44.4239 289.474C44.7029 289.628 44.9455 289.84 45.1352 290.096C45.3248 290.352 45.4573 290.646 45.5233 290.957C45.5893 291.269 45.5875 291.591 45.5179 291.902C45.4483 292.213 45.3125 292.505 45.1199 292.759C44.9274 293.012 44.6825 293.222 44.4018 293.373Z" fill="#FF49BC"/>
<path d="M41.1597 297.043C41.821 295.777 40.3974 293.74 40.3974 293.74C40.3974 293.74 37.9178 293.74 37.2565 295.006C37.0617 295.264 36.9257 295.562 36.8576 295.879C36.7896 296.195 36.7912 296.522 36.8626 296.838C36.9339 297.153 37.0732 297.45 37.2706 297.706C37.4681 297.963 37.7192 298.173 38.0063 298.323C38.2934 298.473 38.6097 298.558 38.9332 298.574C39.2567 298.589 39.5796 298.534 39.8797 298.412C40.1797 298.291 40.4497 298.105 40.6707 297.868C40.8918 297.632 41.0586 297.35 41.1597 297.043Z" fill="#FF49BC"/>
<path d="M48.5713 312.026C49.3886 310.861 51.8498 311.182 51.8498 311.182C51.8498 311.182 52.9887 313.384 52.1805 314.549C52.0402 314.84 51.8381 315.097 51.5884 315.303C51.3386 315.508 51.0473 315.657 50.7343 315.739C50.4214 315.82 50.0944 315.833 49.776 315.776C49.4576 315.719 49.1554 315.593 48.8903 315.408C48.6253 315.223 48.4037 314.982 48.241 314.703C48.0783 314.424 47.9783 314.113 47.9479 313.791C47.9176 313.469 47.9576 313.145 48.0652 312.84C48.1728 312.535 48.3456 312.257 48.5713 312.026Z" fill="#FF49BC"/>
<path d="M51.7764 306.823C52.7499 307.86 51.9325 310.209 51.9325 310.209C51.9325 310.209 49.5355 310.87 48.562 309.833C48.3058 309.636 48.0954 309.385 47.9456 309.099C47.7959 308.812 47.7101 308.497 47.6945 308.174C47.6789 307.851 47.7336 307.529 47.855 307.23C47.9764 306.93 48.1616 306.661 48.3977 306.44C48.6337 306.219 48.9148 306.052 49.2219 305.95C49.5289 305.848 49.8543 305.815 50.1757 305.851C50.4971 305.888 50.8068 305.994 51.0831 306.161C51.3595 306.329 51.5961 306.555 51.7764 306.823Z" fill="#B11E36"/>
<path d="M55.7438 309.594C54.4213 309.09 52.557 310.732 52.557 310.732C52.557 310.732 52.8417 313.2 54.1734 313.705C54.4531 313.868 54.765 313.968 55.0873 313.999C55.4097 314.029 55.7349 313.989 56.0403 313.882C56.3456 313.774 56.6239 313.601 56.8557 313.375C57.0876 313.15 57.2674 312.876 57.3829 312.574C57.4983 312.272 57.5467 311.948 57.5244 311.625C57.5021 311.303 57.4097 310.989 57.2537 310.705C57.0978 310.422 56.8819 310.176 56.6212 309.984C56.3605 309.792 56.0611 309.659 55.7438 309.594Z" fill="#FF49BC"/>
<path d="M75.5723 301.291C74.1579 301.126 73.2671 298.814 73.2671 298.814C73.2671 298.814 74.6723 296.758 76.0774 296.924C76.4016 296.906 76.7255 296.96 77.0268 297.081C77.328 297.202 77.5993 297.387 77.8216 297.623C78.0439 297.86 78.212 298.142 78.314 298.449C78.416 298.757 78.4495 299.084 78.4122 299.406C78.375 299.728 78.2679 300.038 78.0983 300.315C77.9287 300.591 77.7008 300.828 77.4304 301.007C77.16 301.187 76.8535 301.305 76.5326 301.354C76.2117 301.403 75.884 301.381 75.5723 301.291Z" fill="#FF49BC"/>
<path d="M69.4742 300.942C69.9242 299.593 72.3763 299.208 72.3763 299.208C72.3763 299.208 74.0938 301.043 73.6438 302.337C73.5879 302.651 73.4648 302.949 73.283 303.212C73.1013 303.474 72.8651 303.694 72.5904 303.857C72.3158 304.02 72.0091 304.122 71.6915 304.156C71.3739 304.19 71.0527 304.155 70.7498 304.054C70.4469 303.952 70.1695 303.787 69.9363 303.569C69.7032 303.351 69.5197 303.085 69.3986 302.79C69.2776 302.495 69.2217 302.177 69.2347 301.858C69.2477 301.539 69.3295 301.227 69.4742 300.942Z" fill="#FF49BC"/>
<path d="M70.0252 296.125C70.2089 297.538 72.5416 298.392 72.5416 298.392C72.5416 298.392 74.5713 296.969 74.3784 295.556C74.3828 295.238 74.3185 294.922 74.1901 294.631C74.0616 294.34 73.8718 294.079 73.6338 293.868C73.3957 293.656 73.115 293.498 72.8104 293.404C72.5058 293.31 72.1845 293.283 71.8685 293.324C71.5525 293.366 71.2489 293.474 70.9786 293.643C70.7082 293.812 70.4776 294.036 70.3019 294.302C70.1262 294.568 70.0097 294.868 69.9604 295.183C69.9111 295.497 69.93 295.819 70.016 296.125H70.0252Z" fill="#FF49BC"/>
<path d="M77.547 275.94C76.1418 275.775 75.2509 273.463 75.2509 273.463C75.2509 273.463 76.6468 271.408 78.0611 271.573C78.3851 271.557 78.7087 271.611 79.0093 271.733C79.3099 271.855 79.5805 272.041 79.8019 272.277C80.0234 272.514 80.1905 272.796 80.2916 273.104C80.3928 273.412 80.4255 273.738 80.3876 274.06C80.3497 274.382 80.2421 274.692 80.0721 274.968C79.9022 275.244 79.6741 275.479 79.4037 275.658C79.1333 275.837 78.8271 275.955 78.5064 276.004C78.1857 276.052 77.8584 276.031 77.547 275.94Z" fill="#D04757"/>
<path d="M71.467 275.61C71.917 274.27 74.369 273.876 74.369 273.876C74.369 273.876 76.0957 275.711 75.6365 277.014C75.5787 277.327 75.4542 277.623 75.2715 277.884C75.0888 278.145 74.8521 278.363 74.5776 278.525C74.303 278.686 73.9969 278.786 73.68 278.819C73.3631 278.852 73.0429 278.816 72.741 278.715C72.4391 278.613 72.1628 278.448 71.9304 278.23C71.6981 278.012 71.5151 277.747 71.3943 277.453C71.2735 277.158 71.2174 276.841 71.23 276.523C71.2425 276.205 71.3234 275.894 71.467 275.61Z" fill="#FF49BC"/>
<path d="M71.9998 270.811C72.1835 272.215 74.5162 273.068 74.5162 273.068C74.5162 273.068 76.5551 271.646 76.3531 270.233C76.3561 269.915 76.2907 269.6 76.1613 269.309C76.032 269.019 75.8417 268.759 75.6033 268.549C75.3648 268.338 75.0837 268.181 74.7793 268.088C74.4748 267.995 74.154 267.969 73.8384 268.01C73.5228 268.052 73.2198 268.161 72.9501 268.33C72.6803 268.499 72.4501 268.724 72.2749 268.99C72.0997 269.255 71.9836 269.555 71.9346 269.87C71.8855 270.184 71.9047 270.505 71.9906 270.811H71.9998Z" fill="#FF49BC"/>
<path d="M78.9062 319.981C77.5837 320.504 75.7102 318.88 75.7102 318.88C75.7102 318.88 75.9765 316.411 77.299 315.888C77.576 315.731 77.8835 315.636 78.2008 315.608C78.5181 315.58 78.8376 315.62 79.1378 315.726C79.438 315.833 79.712 316.002 79.941 316.223C80.1699 316.444 80.3486 316.712 80.465 317.008C80.5813 317.305 80.6325 317.622 80.6152 317.94C80.5979 318.258 80.5126 318.568 80.3647 318.85C80.2169 319.132 80.0101 319.379 79.7584 319.574C79.5068 319.769 79.2162 319.908 78.9062 319.981Z" fill="#FF49BC"/>
<path d="M73.3683 322.504C73.1295 321.1 75.104 319.604 75.104 319.604C75.104 319.604 77.4643 320.366 77.7031 321.77C77.8023 322.073 77.8348 322.394 77.7984 322.712C77.762 323.029 77.6576 323.334 77.4923 323.607C77.3271 323.881 77.1049 324.115 76.8408 324.295C76.5766 324.474 76.2766 324.595 75.9616 324.648C75.6466 324.701 75.3238 324.686 75.0152 324.604C74.7065 324.521 74.4194 324.373 74.1732 324.169C73.9271 323.966 73.7278 323.712 73.5889 323.424C73.45 323.137 73.3747 322.823 73.3683 322.504Z" fill="#D04757"/>
<path d="M71.5863 318.008C72.4129 319.164 74.8743 318.815 74.8743 318.815C74.8743 318.815 75.9948 316.604 75.1682 315.448C75.0252 315.158 74.8207 314.902 74.5689 314.699C74.3171 314.496 74.0239 314.349 73.7099 314.271C73.3959 314.192 73.0684 314.182 72.7502 314.242C72.4321 314.303 72.1308 314.431 71.8675 314.62C71.6041 314.808 71.3849 315.051 71.2251 315.332C71.0653 315.614 70.9687 315.926 70.9419 316.249C70.9152 316.571 70.9589 316.895 71.0702 317.199C71.1815 317.503 71.3576 317.779 71.5863 318.008Z" fill="#FF49BC"/>
<path d="M61.3645 339.588C62.7697 339.808 63.5778 342.157 63.5778 342.157C63.5778 342.157 62.1085 344.148 60.7033 343.937C60.3793 343.941 60.0583 343.875 59.7625 343.743C59.4666 343.611 59.2031 343.417 58.9903 343.172C58.7774 342.928 58.6202 342.641 58.5297 342.33C58.4392 342.02 58.4174 341.693 58.466 341.373C58.5147 341.053 58.6325 340.747 58.8113 340.477C58.9901 340.207 59.2257 339.979 59.5015 339.81C59.7773 339.64 60.0867 339.532 60.4084 339.494C60.7302 339.455 61.0565 339.488 61.3645 339.588Z" fill="#FF49BC"/>
<path d="M67.4445 340.166C66.9394 341.496 64.4779 341.799 64.4779 341.799C64.4779 341.799 62.8247 339.964 63.3207 338.624C63.3828 338.307 63.5137 338.006 63.7038 337.744C63.894 337.482 64.1389 337.264 64.4218 337.106C64.7047 336.948 65.0186 336.854 65.3418 336.829C65.6649 336.805 65.9896 336.851 66.2931 336.964C66.5967 337.078 66.8718 337.256 67.0994 337.486C67.3271 337.717 67.5018 337.994 67.6113 338.299C67.7209 338.603 67.7628 338.928 67.734 339.251C67.7051 339.573 67.6064 339.885 67.4445 340.166Z" fill="#FF49BC"/>
<path d="M66.7099 344.946C66.5813 343.533 64.2851 342.588 64.2851 342.588C64.2851 342.588 62.2005 343.937 62.329 345.341C62.3126 345.659 62.3648 345.976 62.4822 346.273C62.5995 346.569 62.7792 346.836 63.0091 347.057C63.239 347.277 63.5137 347.446 63.8145 347.551C64.1153 347.656 64.4353 347.695 64.7526 347.666C65.07 347.637 65.3775 347.54 65.654 347.381C65.9305 347.223 66.1697 347.007 66.3554 346.748C66.541 346.489 66.6686 346.194 66.7298 345.881C66.791 345.569 66.7842 345.247 66.7099 344.937V344.946Z" fill="#B11E36"/>
<path d="M60.6757 274.766C61.7594 275.683 61.2268 278.105 61.2268 278.105C61.2268 278.105 58.9306 279.023 57.8377 278.105C57.5604 277.94 57.3225 277.716 57.1404 277.449C56.9583 277.182 56.8363 276.879 56.783 276.56C56.7297 276.242 56.7461 275.916 56.8314 275.604C56.9167 275.293 57.0688 275.003 57.277 274.756C57.4851 274.509 57.7444 274.31 58.0371 274.173C58.3297 274.036 58.6488 273.965 58.9721 273.963C59.2953 273.961 59.6149 274.03 59.9091 274.163C60.2032 274.297 60.4648 274.493 60.6757 274.738V274.766Z" fill="#FF49BC"/>
<path d="M65.571 278.417C64.4505 279.335 62.1911 278.271 62.1911 278.271C62.1911 278.271 61.7411 275.83 62.8615 274.958C63.0814 274.727 63.3489 274.545 63.6454 274.426C63.9419 274.307 64.2605 274.253 64.5797 274.268C64.899 274.283 65.2113 274.367 65.4952 274.513C65.7791 274.66 66.0281 274.866 66.225 275.118C66.422 275.369 66.5623 275.66 66.6365 275.971C66.7107 276.281 66.717 276.604 66.6549 276.917C66.5928 277.23 66.4637 277.526 66.2766 277.785C66.0896 278.044 65.849 278.26 65.571 278.417Z" fill="#FF49BC"/>
<path d="M62.4574 282.124C63.082 280.849 61.6126 278.849 61.6126 278.849C61.6126 278.849 59.1236 278.922 58.4991 280.197C58.3114 280.461 58.1835 280.763 58.1242 281.081C58.0649 281.399 58.0757 281.726 58.1558 282.04C58.2359 282.354 58.3832 282.646 58.5878 282.897C58.7925 283.148 59.0495 283.351 59.3408 283.493C59.632 283.635 59.9507 283.712 60.2747 283.718C60.5986 283.724 60.92 283.66 61.2166 283.53C61.5132 283.4 61.7779 283.206 61.9922 282.964C62.2065 282.721 62.3651 282.434 62.4574 282.124Z" fill="#D04757"/>
<path d="M13.9474 167.462C15.0403 168.38 14.4983 170.802 14.4983 170.802C14.4983 170.802 12.2024 171.72 11.1187 170.802C10.8482 170.634 10.6169 170.41 10.4406 170.145C10.2644 169.88 10.1471 169.58 10.0969 169.266C10.0467 168.952 10.0649 168.631 10.1498 168.324C10.2347 168.017 10.3845 167.733 10.5893 167.489C10.794 167.245 11.0488 167.048 11.3364 166.911C11.6239 166.775 11.9375 166.701 12.2559 166.696C12.5743 166.691 12.8901 166.754 13.1819 166.882C13.4737 167.009 13.7349 167.198 13.9474 167.435V167.462Z" fill="#FF49BC"/>
<path d="M18.8517 171.114C17.7312 172.032 15.4628 170.967 15.4628 170.967C15.4628 170.967 15.022 168.527 16.1425 167.646C16.3618 167.408 16.6305 167.22 16.9297 167.096C17.2289 166.973 17.5514 166.915 17.875 166.928C18.1986 166.942 18.5156 167.025 18.8037 167.173C19.0918 167.321 19.3442 167.529 19.5434 167.785C19.7427 168.04 19.884 168.335 19.9576 168.65C20.0311 168.965 20.035 169.292 19.9692 169.609C19.9034 169.926 19.7694 170.225 19.5764 170.485C19.3834 170.744 19.1361 170.959 18.8517 171.114Z" fill="#FF49BC"/>
<path d="M15.7292 174.821C16.3537 173.536 14.8841 171.545 14.8841 171.545C14.8841 171.545 12.4046 171.61 11.78 172.885C11.5999 173.148 11.4784 173.446 11.424 173.76C11.3695 174.074 11.3835 174.396 11.4646 174.704C11.5457 175.012 11.692 175.299 11.8939 175.546C12.0959 175.792 12.3485 175.992 12.6348 176.133C12.921 176.273 13.2342 176.35 13.553 176.359C13.8717 176.368 14.1886 176.308 14.4821 176.183C14.7756 176.059 15.0389 175.873 15.2541 175.638C15.4693 175.403 15.6314 175.124 15.7292 174.821Z" fill="#FF49BC"/>
<path d="M20.9549 187.07C21.708 185.868 24.1877 186.051 24.1877 186.051C24.1877 186.051 25.446 188.189 24.6929 189.391C24.5698 189.691 24.3827 189.961 24.1446 190.181C23.9066 190.401 23.6233 190.567 23.3146 190.667C23.0058 190.766 22.679 190.798 22.3569 190.758C22.0348 190.719 21.7251 190.61 21.4495 190.439C21.1739 190.268 20.939 190.039 20.7612 189.767C20.5833 189.496 20.4668 189.19 20.4197 188.869C20.3726 188.548 20.3961 188.221 20.4885 187.91C20.5809 187.6 20.7401 187.313 20.9549 187.07Z" fill="#FF49BC"/>
<path d="M23.857 181.712C24.8856 182.693 24.1969 185.07 24.1969 185.07C24.1969 185.07 21.8367 185.868 20.8081 184.877C20.5481 184.692 20.3309 184.453 20.1717 184.176C20.0125 183.9 19.9149 183.592 19.8854 183.274C19.8559 182.957 19.8951 182.636 20.0006 182.335C20.1062 182.034 20.2754 181.759 20.4968 181.53C20.7183 181.3 20.9867 181.12 21.2839 181.003C21.581 180.886 21.8998 180.835 22.2186 180.852C22.5375 180.869 22.8489 180.955 23.1317 181.103C23.4144 181.252 23.6618 181.459 23.857 181.712Z" fill="#D04757"/>
<path d="M27.9713 184.262C26.6213 183.822 24.8488 185.565 24.8488 185.565C24.8488 185.565 25.2712 188.015 26.6213 188.446C26.9075 188.586 27.2204 188.662 27.5388 188.67C27.8572 188.679 28.1738 188.618 28.4668 188.494C28.7599 188.369 29.0227 188.183 29.2375 187.948C29.4523 187.713 29.614 187.435 29.7117 187.132C29.8094 186.829 29.8409 186.509 29.8039 186.193C29.7669 185.877 29.6624 185.572 29.4974 185.3C29.3323 185.028 29.1106 184.794 28.8473 184.615C28.5841 184.436 28.2853 184.316 27.9713 184.262Z" fill="#FF49BC"/>
<path d="M43.9978 180.225C43.3457 181.482 40.8567 181.491 40.8567 181.491C40.8567 181.491 39.4333 179.464 40.0853 178.197C40.1869 177.891 40.3537 177.611 40.5744 177.375C40.795 177.14 41.0643 176.955 41.3634 176.834C41.6625 176.712 41.9842 176.657 42.3067 176.672C42.6292 176.687 42.9448 176.771 43.2314 176.92C43.518 177.068 43.7689 177.277 43.9668 177.532C44.1647 177.787 44.3049 178.082 44.3778 178.396C44.4507 178.71 44.4544 179.036 44.3888 179.352C44.3232 179.668 44.1898 179.966 43.9978 180.225Z" fill="#FF49BC"/>
<path d="M41.5087 185.804C40.4066 184.886 40.9118 182.473 40.9118 182.473C40.9118 182.473 43.1986 181.5 44.2915 182.4C44.5736 182.558 44.818 182.775 45.0072 183.037C45.1964 183.3 45.326 183.6 45.387 183.917C45.4481 184.234 45.439 184.561 45.3606 184.875C45.2821 185.188 45.1359 185.481 44.9325 185.732C44.7291 185.984 44.4734 186.187 44.183 186.33C43.8925 186.472 43.5745 186.549 43.2511 186.556C42.9277 186.563 42.6067 186.499 42.3105 186.369C42.0143 186.239 41.75 186.046 41.5363 185.804H41.5087Z" fill="#FF49BC"/>
<path d="M37.2106 183.583C38.5882 183.904 40.2229 182.033 40.2229 182.033C40.2229 182.033 39.6077 179.629 38.2209 179.28C37.9222 179.157 37.6003 179.1 37.2774 179.113C36.9545 179.127 36.6382 179.21 36.3507 179.357C36.0631 179.504 35.811 179.712 35.6119 179.967C35.4127 180.221 35.2712 180.515 35.1971 180.83C35.123 181.144 35.1181 181.471 35.1827 181.787C35.2474 182.103 35.38 182.402 35.5715 182.662C35.763 182.922 36.0087 183.137 36.2917 183.293C36.5747 183.449 36.8882 183.542 37.2106 183.565V183.583Z" fill="#FF49BC"/>
<path d="M62.1727 192.309C61.0614 193.226 58.793 192.199 58.793 192.199C58.793 192.199 58.3154 189.758 59.4267 188.877C59.6449 188.647 59.9101 188.466 60.2043 188.346C60.4984 188.227 60.8148 188.172 61.1321 188.185C61.4494 188.197 61.7601 188.278 62.0436 188.421C62.327 188.564 62.5765 188.766 62.7752 189.014C62.9739 189.261 63.1171 189.548 63.1954 189.856C63.2736 190.163 63.2852 190.484 63.229 190.796C63.1728 191.108 63.0502 191.405 62.8696 191.666C62.689 191.927 62.4544 192.146 62.1819 192.309H62.1727Z" fill="#D04757"/>
<path d="M57.6358 196.392C56.9929 195.126 58.4441 193.107 58.4441 193.107C58.4441 193.107 60.9237 193.107 61.5666 194.419C61.7492 194.68 61.8735 194.977 61.9309 195.291C61.9883 195.604 61.9775 195.926 61.8993 196.235C61.8211 196.544 61.6774 196.832 61.4778 197.081C61.2781 197.329 61.0273 197.532 60.7423 197.675C60.4574 197.818 60.1451 197.898 59.8264 197.91C59.5077 197.921 59.1901 197.864 58.8954 197.743C58.6007 197.621 58.3359 197.437 58.1185 197.204C57.9012 196.971 57.7364 196.694 57.6358 196.392Z" fill="#FF49BC"/>
<path d="M54.605 192.621C55.7346 193.483 57.9848 192.428 57.9848 192.428C57.9848 192.428 58.3981 189.978 57.2685 189.125C57.0454 188.897 56.7756 188.719 56.4776 188.605C56.1797 188.49 55.8604 188.441 55.5418 188.46C55.2231 188.48 54.9123 188.568 54.6308 188.718C54.3492 188.869 54.1033 189.078 53.9099 189.332C53.7165 189.585 53.5802 189.878 53.5101 190.189C53.44 190.5 53.4379 190.823 53.5038 191.135C53.5698 191.447 53.7024 191.741 53.8924 191.998C54.0824 192.254 54.3254 192.467 54.605 192.621Z" fill="#FF49BC"/>
<path d="M76.4815 220.063C75.3702 220.981 73.0926 219.953 73.0926 219.953C73.0926 219.953 72.6242 217.513 73.7263 216.632C73.9424 216.391 74.2086 216.2 74.5061 216.072C74.8037 215.944 75.1256 215.882 75.4494 215.891C75.7733 215.9 76.0914 215.979 76.3815 216.123C76.6716 216.267 76.9268 216.472 77.1295 216.725C77.3322 216.977 77.4776 217.27 77.5553 217.585C77.633 217.899 77.6412 218.226 77.5795 218.544C77.5178 218.862 77.3877 219.162 77.1981 219.425C77.0085 219.687 76.764 219.905 76.4815 220.063Z" fill="#FF49BC"/>
<path d="M71.9447 224.146C71.3018 222.88 72.7436 220.862 72.7436 220.862C72.7436 220.862 75.2326 220.862 75.8755 222.174C76.0581 222.435 76.1824 222.732 76.2399 223.046C76.2973 223.359 76.2864 223.681 76.2082 223.99C76.1301 224.299 75.9864 224.587 75.7867 224.836C75.5871 225.084 75.3362 225.287 75.0513 225.43C74.7663 225.573 74.4538 225.653 74.1351 225.664C73.8164 225.676 73.4991 225.619 73.2044 225.497C72.9097 225.376 72.6446 225.192 72.4272 224.959C72.2099 224.726 72.0454 224.449 71.9447 224.146Z" fill="#FF49BC"/>
<path d="M68.9138 220.375C70.0434 221.238 72.2934 220.183 72.2934 220.183C72.2934 220.183 72.7069 217.733 71.5773 216.88C71.3542 216.652 71.0844 216.474 70.7865 216.359C70.4885 216.245 70.1693 216.195 69.8506 216.215C69.5319 216.235 69.2212 216.323 68.9396 216.473C68.658 216.623 68.4121 216.833 68.2187 217.086C68.0253 217.34 67.889 217.633 67.8189 217.944C67.7488 218.255 67.7467 218.578 67.8126 218.89C67.8786 219.202 68.0112 219.496 68.2012 219.753C68.3912 220.009 68.6342 220.221 68.9138 220.375Z" fill="#FF49BC"/>
<path d="M41.4261 198.942C42.3445 197.85 44.769 198.383 44.769 198.383C44.769 198.383 45.6874 200.667 44.769 201.759C44.6055 202.039 44.3828 202.28 44.1165 202.465C43.8502 202.65 43.5466 202.775 43.227 202.831C42.9075 202.887 42.5795 202.873 42.266 202.789C41.9526 202.706 41.6611 202.555 41.412 202.347C41.1628 202.14 40.9619 201.88 40.8234 201.587C40.6849 201.294 40.6121 200.974 40.61 200.65C40.6078 200.326 40.6765 200.005 40.8111 199.71C40.9457 199.415 41.143 199.153 41.3893 198.942H41.4261Z" fill="#FF49BC"/>
<path d="M45.0629 194.034C45.9813 195.153 44.9253 197.419 44.9253 197.419C44.9253 197.419 42.4822 197.869 41.6097 196.759C41.3765 196.54 41.193 196.273 41.0718 195.977C40.9507 195.682 40.8948 195.363 40.9077 195.044C40.9206 194.724 41.0019 194.411 41.1465 194.126C41.2911 193.841 41.4955 193.59 41.7456 193.391C41.9958 193.191 42.2858 193.048 42.5963 192.97C42.9068 192.893 43.2303 192.883 43.545 192.941C43.8596 193 44.158 193.125 44.4199 193.309C44.6818 193.492 44.9011 193.73 45.0629 194.006V194.034Z" fill="#FF49BC"/>
<path d="M48.7825 197.135C47.4967 196.511 45.5037 197.997 45.5037 197.997C45.5037 197.997 45.5864 200.475 46.8629 201.089C47.1269 201.268 47.4262 201.388 47.7405 201.441C48.0549 201.493 48.377 201.478 48.685 201.395C48.9929 201.313 49.2794 201.165 49.5251 200.963C49.7708 200.76 49.9701 200.506 50.1092 200.22C50.2483 199.933 50.3241 199.62 50.3314 199.302C50.3387 198.983 50.2772 198.667 50.1514 198.374C50.0255 198.082 49.8382 197.82 49.602 197.606C49.3658 197.392 49.0863 197.231 48.7825 197.135Z" fill="#FF49BC"/>
<path d="M65.9567 241.231C66.8751 240.148 69.2996 240.671 69.2996 240.671C69.2996 240.671 70.218 242.965 69.2996 244.056C69.1341 244.333 68.9104 244.571 68.644 244.753C68.3775 244.936 68.0747 245.058 67.7563 245.112C67.4379 245.166 67.1117 245.15 66.8 245.066C66.4883 244.982 66.1985 244.831 65.9509 244.624C65.7032 244.417 65.5036 244.158 65.3657 243.867C65.2277 243.575 65.1547 243.257 65.1517 242.934C65.1488 242.612 65.216 242.292 65.3486 241.998C65.4813 241.704 65.6761 241.442 65.9199 241.231H65.9567Z" fill="#FF49BC"/>
<path d="M69.6302 236.322C70.5486 237.441 69.4926 239.707 69.4926 239.707C69.4926 239.707 67.0495 240.166 66.177 239.047C65.9437 238.828 65.7603 238.562 65.6391 238.266C65.518 237.97 65.4621 237.651 65.475 237.332C65.4879 237.012 65.5692 236.699 65.7138 236.414C65.8584 236.129 66.0627 235.878 66.3129 235.679C66.563 235.479 66.8531 235.336 67.1636 235.259C67.4741 235.181 67.7976 235.171 68.1123 235.23C68.4269 235.288 68.7253 235.413 68.9872 235.597C69.2491 235.781 69.4684 236.018 69.6302 236.294V236.322Z" fill="#FF49BC"/>
<path d="M73.3038 239.423C72.0273 238.808 70.0251 240.285 70.0251 240.285C70.0251 240.285 70.1077 242.763 71.3935 243.377C71.6576 243.558 71.9577 243.679 72.2731 243.733C72.5885 243.787 72.9117 243.772 73.2209 243.69C73.53 243.607 73.8176 243.459 74.0642 243.255C74.3107 243.052 74.5103 242.797 74.6494 242.509C74.7884 242.222 74.8638 241.907 74.87 241.588C74.8762 241.268 74.8132 240.951 74.6855 240.658C74.5577 240.365 74.3681 240.103 74.1296 239.89C73.8912 239.676 73.6095 239.517 73.3038 239.423Z" fill="#FF49BC"/>
<path d="M53.3654 212.127C54.7521 211.815 56.3686 213.696 56.3686 213.696C56.3686 213.696 55.7349 216.1 54.3481 216.448C54.0482 216.573 53.7246 216.631 53.4001 216.617C53.0756 216.604 52.7579 216.52 52.4691 216.372C52.1804 216.223 51.9277 216.013 51.7286 215.757C51.5294 215.501 51.3885 215.204 51.316 214.888C51.2434 214.571 51.241 214.243 51.3086 213.926C51.3762 213.608 51.5123 213.31 51.7075 213.05C51.9026 212.791 52.1521 212.577 52.4384 212.424C52.7248 212.271 53.0411 212.182 53.3654 212.164V212.127Z" fill="#B11E36"/>
<path d="M59.2338 210.42C59.2338 211.833 57.0757 213.026 57.0757 213.026C57.0757 213.026 54.853 211.916 54.8346 210.494C54.784 210.18 54.8016 209.858 54.8862 209.551C54.9708 209.244 55.1206 208.959 55.3252 208.715C55.5298 208.471 55.7845 208.274 56.0721 208.137C56.3597 208 56.6733 207.926 56.9918 207.921C57.3104 207.916 57.6266 207.979 57.9185 208.106C58.2105 208.233 58.4716 208.422 58.6843 208.659C58.8969 208.896 59.056 209.176 59.1509 209.48C59.2457 209.784 59.2739 210.105 59.2338 210.42Z" fill="#FF49BC"/>
<path d="M60.3177 215.127C59.6748 213.87 57.1858 213.834 57.1858 213.834C57.1858 213.834 55.7532 215.861 56.3961 217.127C56.4941 217.436 56.6583 217.719 56.877 217.958C57.0958 218.197 57.3639 218.385 57.6629 218.51C57.9619 218.635 58.2845 218.693 58.6082 218.681C58.932 218.668 59.2493 218.586 59.5379 218.439C59.8264 218.291 60.0794 218.083 60.2794 217.828C60.4793 217.574 60.6213 217.278 60.6955 216.963C60.7697 216.648 60.7744 216.321 60.7092 216.004C60.6439 215.687 60.5103 215.388 60.3177 215.127Z" fill="#FF49BC"/>
<path d="M116.845 242.368C115.523 242.9 113.631 241.295 113.631 241.295C113.631 241.295 113.879 238.827 115.202 238.294C115.477 238.133 115.784 238.032 116.102 238C116.42 237.968 116.741 238.004 117.044 238.107C117.346 238.21 117.623 238.377 117.855 238.596C118.087 238.816 118.269 239.083 118.388 239.379C118.508 239.675 118.562 239.993 118.547 240.312C118.532 240.631 118.449 240.943 118.302 241.227C118.156 241.51 117.95 241.759 117.698 241.956C117.447 242.153 117.156 242.294 116.845 242.368Z" fill="#D04757"/>
<path d="M111.326 244.983C111.078 243.589 113.034 242.065 113.034 242.065C113.034 242.065 115.404 242.818 115.652 244.212C115.755 244.515 115.791 244.837 115.758 245.155C115.726 245.473 115.625 245.781 115.462 246.057C115.299 246.332 115.079 246.569 114.816 246.752C114.553 246.935 114.253 247.058 113.938 247.114C113.622 247.17 113.299 247.158 112.989 247.077C112.679 246.997 112.39 246.851 112.142 246.648C111.894 246.446 111.692 246.192 111.551 245.905C111.411 245.617 111.334 245.303 111.326 244.983Z" fill="#FF49BC"/>
<path d="M109.507 240.506C110.343 241.653 112.804 241.286 112.804 241.286C112.804 241.286 113.897 239.065 113.062 237.918C112.913 237.636 112.706 237.389 112.453 237.194C112.2 236.999 111.909 236.861 111.598 236.788C111.287 236.716 110.964 236.711 110.651 236.775C110.338 236.838 110.043 236.969 109.785 237.156C109.527 237.344 109.312 237.585 109.156 237.863C109 238.141 108.905 238.45 108.879 238.768C108.853 239.085 108.895 239.405 109.003 239.705C109.112 240.005 109.284 240.278 109.507 240.506Z" fill="#FF49BC"/>
<path d="M104.53 258.571C103.161 258.186 102.638 255.764 102.638 255.764C102.638 255.764 104.346 253.929 105.714 254.333C106.036 254.368 106.346 254.473 106.622 254.641C106.899 254.808 107.136 255.033 107.317 255.301C107.498 255.569 107.619 255.873 107.671 256.192C107.722 256.51 107.704 256.837 107.617 257.148C107.53 257.459 107.377 257.748 107.167 257.994C106.957 258.24 106.696 258.438 106.403 258.573C106.109 258.708 105.789 258.778 105.466 258.778C105.142 258.778 104.823 258.707 104.53 258.571Z" fill="#FF49BC"/>
<path d="M98.5966 257.278C99.2487 256.021 101.728 256.012 101.728 256.012C101.728 256.012 103.152 258.049 102.5 259.305C102.395 259.606 102.226 259.881 102.005 260.11C101.785 260.34 101.517 260.52 101.221 260.637C100.925 260.755 100.607 260.807 100.288 260.791C99.9701 260.775 99.659 260.69 99.3762 260.543C99.0935 260.396 98.8456 260.19 98.6495 259.939C98.4534 259.688 98.3136 259.398 98.2397 259.088C98.1657 258.779 98.1593 258.457 98.2208 258.144C98.2824 257.832 98.4107 257.536 98.5966 257.278Z" fill="#FF49BC"/>
<path d="M99.9376 252.617C99.9376 254.039 102.068 255.25 102.068 255.25C102.068 255.25 104.3 254.158 104.337 252.736C104.4 252.418 104.392 252.09 104.315 251.775C104.238 251.46 104.093 251.165 103.89 250.912C103.688 250.659 103.432 250.453 103.142 250.308C102.851 250.164 102.532 250.084 102.208 250.076C101.883 250.067 101.561 250.129 101.263 250.257C100.965 250.386 100.698 250.578 100.482 250.82C100.266 251.062 100.105 251.348 100.011 251.658C99.9173 251.969 99.8921 252.296 99.9376 252.617Z" fill="#FF49BC"/>
<path d="M94.8588 242.91C94.7669 244.323 92.5076 245.341 92.5076 245.341C92.5076 245.341 90.3769 244.066 90.4596 242.643C90.4279 242.322 90.4663 241.998 90.5721 241.693C90.678 241.389 90.8489 241.111 91.0728 240.878C91.2968 240.646 91.5686 240.465 91.8695 240.347C92.1703 240.23 92.4931 240.179 92.8155 240.199C93.1378 240.218 93.4521 240.308 93.7366 240.46C94.0211 240.613 94.269 240.825 94.4633 241.083C94.6575 241.341 94.7936 241.638 94.8619 241.953C94.9302 242.268 94.9291 242.595 94.8588 242.91Z" fill="#B11E36"/>
<path d="M94.8496 248.965C93.4811 248.589 92.9484 246.213 92.9484 246.213C92.9484 246.213 94.6475 244.378 96.0159 244.772C96.339 244.805 96.6512 244.907 96.9305 245.072C97.2099 245.238 97.4498 245.462 97.6335 245.729C97.8171 245.997 97.9402 246.301 97.994 246.621C98.0478 246.941 98.031 247.269 97.9449 247.581C97.8588 247.894 97.7055 248.184 97.4956 248.432C97.2856 248.679 97.0244 248.878 96.7296 249.014C96.4349 249.15 96.114 249.221 95.7893 249.22C95.4646 249.219 95.1438 249.148 94.8496 249.011V248.965Z" fill="#FF49BC"/>
<path d="M90.0188 248.681C91.4147 248.424 92.1403 246.047 92.1403 246.047C92.1403 246.047 90.5974 244.102 89.2015 244.359C88.8773 244.366 88.5584 244.443 88.2672 244.586C87.9759 244.728 87.7194 244.932 87.5151 245.184C87.3109 245.435 87.1638 245.728 87.0844 246.042C87.005 246.356 86.995 246.684 87.0553 247.002C87.1155 247.321 87.2444 247.622 87.4331 247.885C87.6217 248.149 87.8656 248.368 88.1476 248.528C88.4297 248.688 88.7431 248.784 89.0663 248.81C89.3894 248.837 89.7145 248.793 90.0188 248.681Z" fill="#FF49BC"/>
<path d="M35.2084 363.893H106.789C107.036 363.893 107.28 363.948 107.503 364.055C107.726 364.161 107.922 364.315 108.078 364.507C108.233 364.698 108.344 364.922 108.403 365.162C108.461 365.402 108.465 365.651 108.414 365.893L107.45 370.343C107.369 370.711 107.164 371.041 106.871 371.278C106.577 371.514 106.211 371.644 105.834 371.646H36.8892C36.5523 371.644 36.2238 371.541 35.9468 371.349C35.6698 371.157 35.4572 370.887 35.3369 370.572L33.6564 366.132C33.5632 365.881 33.532 365.611 33.5654 365.346C33.5988 365.081 33.6957 364.828 33.8481 364.608C34.0005 364.388 34.2037 364.208 34.4405 364.084C34.6773 363.959 34.9408 363.894 35.2084 363.893Z" fill="#26A392" stroke="black" stroke-miterlimit="10"/>
<path d="M40.8841 378.637C41.6831 378.637 102.013 371.646 102.013 371.646H40.1586L40.8841 378.637Z" fill="black"/>
<path d="M266.683 227.789C247.332 232.789 219.56 234.927 197.096 228.156C178.507 222.541 171.233 204.429 167.789 183.198C175.596 188.629 198.464 184.73 233.823 183.968L312.429 184.886C314.944 184.917 317.415 185.557 319.628 186.752C321.841 187.947 323.73 189.661 325.134 191.746C326.538 193.832 327.414 196.227 327.687 198.725C327.96 201.224 327.621 203.751 326.701 206.09L258.821 361.461L244.605 361.223L285.574 220.385C281.442 223.055 274.793 225.669 266.646 227.789C247.295 232.789 219.523 234.927 197.059 228.156" fill="#00404C"/>
<path d="M241.721 368.737L244.641 361.223L255.754 361.36C261.907 361.36 265.324 363.819 270.053 366.746C270.244 366.842 270.395 367.001 270.481 367.195C270.567 367.39 270.582 367.609 270.525 367.814C270.467 368.019 270.34 368.197 270.166 368.319C269.991 368.44 269.779 368.497 269.567 368.48L241.721 368.737Z" stroke="black" stroke-miterlimit="10"/>
</g>
<defs>
<clipPath id="clip0_328_3838">
<rect width="478.203" height="434" fill="white" transform="translate(0.797226)"/>
</clipPath>
</defs>
</svg>
