<svg width="371" height="444" viewBox="0 0 371 444" fill="none" xmlns="http://www.w3.org/2000/svg">
<g clip-path="url(#clip0_22_1167)">
<path opacity="0.5" d="M116.24 443.031C116.523 409.251 130.068 376.952 153.926 353.167C177.783 329.381 210.021 316.035 243.62 316.035C277.219 316.035 309.457 329.381 333.315 353.167C357.173 376.952 371.202 407.312 371.484 441.092L116.24 443.031Z" fill="white"/>
<path d="M195.27 83.3712C205.14 63.5947 215.503 56.3886 219.451 55.2576C224.057 57.1965 235.046 62.7223 242.152 69.3144C249.258 75.9065 248.403 83.048 247.087 85.7947L234.256 184.192H179.478C175.201 184.192 166.253 182.738 164.674 176.921C171.089 140.083 182.933 108.092 195.27 83.3712Z" fill="#FFE749" stroke="black"/>
<path d="M252.193 178.453L339.76 432.444H323.603L190.779 189.437L252.193 178.453Z" fill="#00404C"/>
<path d="M371.968 441.024L0.968628 443.031" stroke="black" stroke-width="1.18" stroke-miterlimit="10"/>
<path d="M327.81 441.089L324.02 432.367H340.794C347.31 432.367 350.928 435.379 355.936 438.965C356.136 439.082 356.296 439.275 356.387 439.513C356.478 439.75 356.495 440.016 356.435 440.266C356.376 440.516 356.243 440.735 356.06 440.885C355.877 441.035 355.654 441.107 355.43 441.089H327.81Z" stroke="black" stroke-miterlimit="10"/>
<path d="M242.971 373.086L246.051 365.146L257.772 365.302C264.263 365.302 267.866 367.9 272.854 370.982C273.055 371.083 273.215 371.251 273.305 371.457C273.396 371.663 273.413 371.893 273.352 372.11C273.291 372.327 273.157 372.515 272.973 372.644C272.788 372.772 272.565 372.833 272.341 372.815L242.971 373.086Z" stroke="black" stroke-miterlimit="10"/>
<path d="M234.563 94.9074C235.716 103.051 245.509 141.052 245.509 141.052L332.021 104.214L341.31 115.847C341.31 115.847 284.449 147.199 249.645 163.456C214.841 179.713 209.019 137.911 202.074 91.4853" fill="#FFE749"/>
<path d="M234.563 94.9074C235.716 103.051 245.509 141.052 245.509 141.052L332.021 104.214L341.31 115.847C341.31 115.847 284.449 147.199 249.645 163.456C214.841 179.713 209.019 137.911 202.074 91.4853" stroke="black" stroke-width="1.56" stroke-miterlimit="10"/>
<path d="M250.798 76.3718L249.829 84.864C249.802 85.061 249.725 85.2477 249.606 85.4069C249.489 85.5648 249.332 85.6887 249.151 85.7655C248.968 85.8431 248.768 85.8732 248.57 85.8529C248.374 85.8299 248.187 85.7564 248.028 85.6396L247.524 85.2421L247.756 82.0043C247.965 79.2525 247.423 76.4956 246.188 74.0282C244.952 71.5609 243.071 69.4759 240.743 67.9959L221.757 55.9168C221.066 55.492 220.32 55.1657 219.539 54.9474L223.84 50.1874C224.161 49.8455 224.55 49.5748 224.982 49.3928C225.414 49.2108 225.88 49.1215 226.349 49.1308C226.816 49.1503 227.274 49.2657 227.695 49.4701C228.118 49.6793 228.491 49.9768 228.79 50.3426L250.798 76.3718Z" fill="#FFF3B7" stroke="black" stroke-width="1.56" stroke-miterlimit="10"/>
<path d="M219.578 54.8698C220.358 55.0882 221.105 55.4144 221.796 55.8392L240.782 67.9185C243.109 69.3984 244.991 71.4835 246.226 73.9508C247.462 76.4181 248.004 79.1749 247.795 81.9267L247.563 85.1646" stroke="black" stroke-width="1.56" stroke-miterlimit="10"/>
<path d="M237.101 166.529L235.638 178.375" stroke="black" stroke-width="1.56" stroke-miterlimit="10"/>
<path d="M247.543 85.2228L242.157 127.151L247.543 85.2228Z" fill="#FFE749"/>
<path d="M247.543 85.2228L242.157 127.151" stroke="black" stroke-width="1.56" stroke-miterlimit="10"/>
<path d="M243.436 49.0824C243.436 49.0824 258.295 59.6105 261.269 57.8849C264.243 56.1593 266.364 46.3292 266.364 46.3292C267.992 46.5619 269.27 46.9787 270.869 46.523C272.37 45.7572 269.716 39.1069 269.997 34.3373C270.278 29.5677 271.663 23.2858 270.152 20.3775" stroke="black" stroke-width="1.56" stroke-miterlimit="10"/>
<path d="M227.589 49.6253C230.71 46.7243 233.515 43.5007 235.958 40.0085" stroke="black" stroke-width="1.56" stroke-miterlimit="10"/>
<path d="M251.844 56.0913C251.844 56.0913 243.717 65.6015 243.775 69.2757" stroke="black" stroke-width="1.56" stroke-miterlimit="10"/>
<path d="M308.734 114.18L316.59 129.274" stroke="black" stroke-width="1.56" stroke-miterlimit="10"/>
<path d="M333.183 105.368C333.183 105.368 335.711 99.2407 337.242 97.9126C338.21 97.0595 341.02 98.0386 342.879 98.882C343.05 98.957 343.197 99.0769 343.304 99.2289C343.411 99.3808 343.476 99.5592 343.49 99.7448C343.508 99.9323 343.471 100.121 343.383 100.288C343.302 100.456 343.175 100.597 343.015 100.695L340.109 102.566C340.109 102.566 340.032 105.591 342.221 105.707C343.732 105.707 353.186 101.054 358.301 98.4167C358.416 98.3736 358.544 98.3736 358.659 98.4167C358.78 98.452 358.886 98.5271 358.959 98.63C359.027 98.733 359.058 98.8561 359.047 98.9789C359.039 99.1028 358.988 99.2199 358.901 99.3086C353.835 104.049 348.246 110.942 340.138 114.723" stroke="black" stroke-width="1.56" stroke-miterlimit="10"/>
<path d="M340.119 102.547L368.695 89.0423C368.829 88.9816 368.974 88.9487 369.121 88.9454C369.264 88.9464 369.406 88.9761 369.537 89.0327C369.67 89.0865 369.79 89.1692 369.887 89.2748C369.984 89.3804 370.057 89.5063 370.099 89.6433L370.554 91.02C370.661 91.3011 370.661 91.6114 370.554 91.8925C370.441 92.1708 370.226 92.3959 369.954 92.5226L341.911 105.988L340.119 102.547Z" fill="black"/>
<path d="M201.493 92.319C201.493 92.319 196.446 178.598 235.638 178.366L236.471 167.004C236.471 167.004 223.385 167.974 216.372 153.946C209.358 139.918 201.493 92.319 201.493 92.319Z" fill="black"/>
<path d="M235.067 94.8493L243.136 119.289L242.167 126.705L237.052 106.802L235.067 94.8493Z" fill="black"/>
<path d="M230.873 46.3873L243.756 67.4434L227.811 49.4313L230.873 46.3873Z" fill="black"/>
<path d="M231.667 43.7117C230.824 41.482 222.145 12.3214 230.805 6.17524C239.465 0.0290342 254.828 -1.64801 265.997 3.10221C277.165 7.85243 276.816 16.965 270.152 20.3774C263.487 23.7898 250.633 19.311 249.239 21.5504C248.617 22.6824 248.191 23.9115 247.979 25.1858C247.93 25.4599 247.82 25.7195 247.657 25.9451C247.494 26.1706 247.282 26.3565 247.037 26.4888C246.792 26.6211 246.521 26.6964 246.243 26.7092C245.965 26.7219 245.688 26.6718 245.432 26.5624C244.406 26.0833 243.245 25.9737 242.148 26.2523C238.796 27.0957 240.86 41.1233 238.341 42.8004C235.822 44.4775 231.667 43.7117 231.667 43.7117Z" fill="black"/>
<path d="M272.99 228.437H172.975C169.647 228.437 166.95 231.137 166.95 234.467V236.629C166.95 239.959 169.647 242.659 172.975 242.659H272.99C276.318 242.659 279.015 239.959 279.015 236.629V234.467C279.015 231.137 276.318 228.437 272.99 228.437Z" fill="black" stroke="black" stroke-width="1.29" stroke-miterlimit="10"/>
<path d="M185.016 243.328L154.018 442.061" stroke="black" stroke-width="1.29" stroke-miterlimit="10"/>
<path d="M264.398 242.872L295.444 441.092" stroke="black" stroke-width="1.29" stroke-miterlimit="10"/>
<path d="M224.625 243.192V441.576" stroke="black" stroke-width="1.29" stroke-miterlimit="10"/>
<path d="M164.674 372.262L283.82 373.231" stroke="black" stroke-width="1.29" stroke-miterlimit="10"/>
<path d="M58.8175 378.738H124.057L117.209 442.061L63.8158 443.089L58.8175 378.738Z" fill="#00404C" stroke="black" stroke-miterlimit="10"/>
<path d="M19.8577 442.682L62.4791 428.974L63.9321 442.682H19.8577Z" fill="black"/>
<path d="M62.5082 299.516L89.8634 322.666C89.8634 322.666 89.4467 367.531 89.4951 370.546" stroke="black" stroke-miterlimit="10"/>
<path d="M82.9568 316.82L90.2993 267.854L131.826 243.279" stroke="black" stroke-miterlimit="10" stroke-linecap="round"/>
<path d="M107.396 257.733L72.8923 191.773L37.4874 172.404" stroke="black" stroke-miterlimit="10" stroke-linecap="round"/>
<path d="M76.0018 299.875C75.0331 301.057 72.4953 300.563 72.4953 300.563C72.4953 300.563 71.4297 298.168 72.3596 296.995C72.5302 296.704 72.7616 296.453 73.0378 296.258C73.3141 296.064 73.6288 295.932 73.9606 295.87C74.2925 295.809 74.6338 295.819 74.9612 295.901C75.2887 295.983 75.5946 296.134 75.8585 296.345C76.1223 296.556 76.3379 296.821 76.4904 297.122C76.6429 297.423 76.7289 297.754 76.7425 298.092C76.7561 298.429 76.6969 298.766 76.5691 299.078C76.4413 299.391 76.2478 299.672 76.0018 299.904V299.875Z" fill="#FF49BC"/>
<path d="M72.3111 305.158C71.3425 304.004 72.3111 301.59 72.3111 301.59C72.3111 301.59 74.8685 301.038 75.8275 302.191C76.0794 302.416 76.28 302.692 76.4154 303.002C76.5509 303.311 76.6179 303.646 76.6122 303.983C76.6065 304.321 76.5279 304.653 76.3821 304.958C76.2363 305.262 76.0266 305.531 75.7672 305.747C75.5078 305.963 75.2049 306.12 74.8792 306.208C74.5535 306.296 74.2127 306.313 73.88 306.257C73.5473 306.201 73.2304 306.074 72.9513 305.884C72.6722 305.694 72.4375 305.447 72.2629 305.158H72.3111Z" fill="#B11E36"/>
<path d="M68.3008 301.998C69.6666 302.608 71.7299 301.028 71.7299 301.028C71.7299 301.028 71.5748 298.411 70.209 297.79C69.9254 297.605 69.6051 297.483 69.2701 297.433C68.9352 297.383 68.5933 297.405 68.2679 297.5C67.9425 297.594 67.6414 297.757 67.3848 297.979C67.1283 298.2 66.9225 298.474 66.7815 298.782C66.6406 299.091 66.5677 299.426 66.568 299.765C66.5683 300.104 66.6417 300.438 66.7832 300.747C66.9247 301.055 67.1308 301.328 67.3877 301.549C67.6446 301.77 67.9461 301.933 68.2717 302.027L68.3008 301.998Z" fill="#FF49BC"/>
<path d="M58.2363 292.08C59.3503 293.05 58.7207 295.619 58.7207 295.619C58.7207 295.619 56.2698 296.588 55.1461 295.551C54.8575 295.368 54.6121 295.125 54.4269 294.837C54.2418 294.55 54.1213 294.226 54.0739 293.887C54.0264 293.549 54.0531 293.204 54.1521 292.877C54.2512 292.55 54.4201 292.248 54.6474 291.993C54.8746 291.738 55.1546 291.535 55.468 291.399C55.7813 291.263 56.1205 291.197 56.462 291.205C56.8034 291.213 57.1391 291.296 57.4455 291.447C57.7519 291.598 58.0218 291.814 58.2363 292.08Z" fill="#FF49BC"/>
<path d="M63.2928 296.074C62.0917 296.966 59.7279 295.822 59.7279 295.822C59.7279 295.822 59.3309 293.224 60.532 292.332C60.7705 292.089 61.0589 291.9 61.3775 291.779C61.696 291.658 62.0372 291.607 62.3771 291.631C62.7171 291.654 63.0478 291.752 63.3465 291.916C63.6452 292.08 63.9049 292.307 64.1073 292.582C64.3097 292.856 64.4502 293.171 64.519 293.505C64.5878 293.839 64.5832 294.184 64.5058 294.516C64.4283 294.848 64.2798 295.16 64.0704 295.429C63.8609 295.698 63.5957 295.918 63.2928 296.074Z" fill="#FF49BC"/>
<path d="M59.9025 299.894C60.5999 298.566 59.1081 296.414 59.1081 296.414C59.1081 296.414 56.4831 296.414 55.7856 297.742C55.5802 298.015 55.4364 298.329 55.3647 298.664C55.293 298.998 55.2949 299.344 55.3701 299.677C55.4454 300.011 55.5922 300.324 55.8005 300.595C56.0088 300.866 56.2734 301.088 56.5762 301.246C56.879 301.405 57.2127 301.495 57.5539 301.512C57.8951 301.528 58.2359 301.47 58.5524 301.341C58.8688 301.212 59.1536 301.016 59.3867 300.766C59.6198 300.516 59.7958 300.219 59.9025 299.894Z" fill="#D04757"/>
<path d="M67.6904 315.744C68.5525 314.523 71.1486 314.852 71.1486 314.852C71.1486 314.852 72.3499 317.179 71.4975 318.41C71.3494 318.718 71.1363 318.989 70.8729 319.206C70.6095 319.423 70.3022 319.581 69.9721 319.667C69.642 319.753 69.2971 319.767 68.9613 319.706C68.6255 319.646 68.3067 319.514 68.0272 319.318C67.7477 319.122 67.5139 318.868 67.3423 318.573C67.1707 318.278 67.0652 317.949 67.0332 317.609C67.0012 317.269 67.0434 316.926 67.1569 316.604C67.2704 316.282 67.4524 315.989 67.6904 315.744Z" fill="#FF49BC"/>
<path d="M71.0713 310.257C72.0981 311.353 71.2359 313.825 71.2359 313.825C71.2359 313.825 68.7078 314.523 67.681 313.427C67.4185 313.217 67.2042 312.952 67.0528 312.652C66.9015 312.351 66.8166 312.022 66.8038 311.685C66.791 311.349 66.8508 311.014 66.9788 310.703C67.1069 310.392 67.3002 310.112 67.5459 309.882C67.7917 309.652 68.0838 309.478 68.4027 309.371C68.7217 309.264 69.06 309.228 69.3943 309.263C69.7287 309.299 70.0514 309.406 70.3408 309.578C70.6301 309.749 70.8794 309.981 71.0713 310.257Z" fill="#FF49BC"/>
<path d="M75.2558 313.185C73.8609 312.652 71.8945 314.387 71.8945 314.387C71.8945 314.387 72.1948 316.985 73.5994 317.518C73.893 317.685 74.2191 317.785 74.5553 317.814C74.8915 317.843 75.2299 317.798 75.5474 317.684C75.8649 317.57 76.1538 317.388 76.3947 317.152C76.6357 316.916 76.8228 316.63 76.9434 316.315C77.0639 315.999 77.1151 315.662 77.0933 315.325C77.0715 314.988 76.9773 314.659 76.8171 314.362C76.6569 314.065 76.4343 313.806 76.1649 313.603C75.8954 313.4 75.5853 313.257 75.2558 313.185Z" fill="#F67A56"/>
<path d="M96.1404 304.402C94.6583 304.227 93.709 301.784 93.709 301.784C93.709 301.784 95.1911 299.622 96.6732 299.787C97.0151 299.769 97.3567 299.826 97.6745 299.954C97.9922 300.081 98.2784 300.277 98.5128 300.526C98.7473 300.776 98.9246 301.074 99.0322 301.399C99.1398 301.725 99.1751 302.07 99.1357 302.41C99.0964 302.75 98.9835 303.078 98.8047 303.37C98.6258 303.663 98.3853 303.912 98.1002 304.102C97.815 304.291 97.4917 304.417 97.1532 304.468C96.8148 304.52 96.4691 304.497 96.1404 304.402Z" fill="#FF49BC"/>
<path d="M89.7374 304.043C90.2121 302.618 92.7986 302.201 92.7986 302.201C92.7986 302.201 94.6099 304.14 94.1352 305.517C94.0763 305.849 93.9467 306.164 93.755 306.441C93.5632 306.718 93.3139 306.951 93.0242 307.123C92.7345 307.295 92.4113 307.403 92.0763 307.439C91.7413 307.475 91.4025 307.438 91.0831 307.331C90.7636 307.224 90.471 307.049 90.2251 306.818C89.9792 306.588 89.7857 306.307 89.658 305.995C89.5303 305.683 89.4714 305.347 89.4851 305.01C89.4988 304.674 89.5848 304.344 89.7374 304.043Z" fill="#FF49BC"/>
<path d="M90.3284 298.963C90.5221 300.446 92.9825 301.358 92.9825 301.358C92.9825 301.358 95.1233 299.845 94.9199 298.362C94.9245 298.026 94.8567 297.692 94.7212 297.384C94.5857 297.077 94.3856 296.801 94.1345 296.578C93.8834 296.354 93.5871 296.187 93.2659 296.088C92.9446 295.989 92.6059 295.96 92.2726 296.004C91.9393 296.047 91.6191 296.162 91.334 296.34C91.0489 296.519 90.8056 296.756 90.6202 297.037C90.4349 297.318 90.3121 297.635 90.2601 297.967C90.2081 298.3 90.228 298.639 90.3187 298.963H90.3284Z" fill="#FF49BC"/>
<path d="M98.2617 277.636C96.7699 277.471 95.8303 275.018 95.8303 275.018C95.8303 275.018 97.3028 272.856 98.7945 273.021C99.1302 273.012 99.4638 273.076 99.7729 273.207C100.082 273.338 100.359 273.535 100.586 273.783C100.812 274.031 100.983 274.324 101.087 274.644C101.19 274.964 101.224 275.302 101.185 275.636C101.147 275.969 101.037 276.291 100.863 276.579C100.69 276.866 100.457 277.114 100.179 277.303C99.9022 277.493 99.5874 277.621 99.2566 277.678C98.9258 277.735 98.5865 277.721 98.2617 277.636Z" fill="#D04757"/>
<path d="M91.8202 277.277C92.2948 275.852 94.8811 275.435 94.8811 275.435C94.8811 275.435 96.7023 277.374 96.218 278.751C96.159 279.083 96.0292 279.398 95.8375 279.675C95.6457 279.952 95.3966 280.185 95.107 280.357C94.8173 280.529 94.4938 280.637 94.1589 280.673C93.8239 280.709 93.4851 280.672 93.1656 280.565C92.8461 280.458 92.5535 280.283 92.3076 280.052C92.0617 279.822 91.8684 279.541 91.7407 279.229C91.613 278.917 91.5539 278.581 91.5676 278.244C91.5813 277.908 91.6675 277.578 91.8202 277.277Z" fill="#FF49BC"/>
<path d="M92.4012 272.197C92.6046 273.68 95.0553 274.592 95.0553 274.592C95.0553 274.592 97.2058 273.079 96.9927 271.596C97.002 271.256 96.9376 270.917 96.8037 270.604C96.6698 270.291 96.4697 270.011 96.2172 269.783C95.9647 269.555 95.6656 269.384 95.3408 269.283C95.016 269.181 94.6731 269.151 94.3357 269.195C93.9983 269.239 93.6744 269.356 93.3864 269.537C93.0984 269.719 92.8532 269.96 92.6675 270.246C92.4818 270.531 92.3601 270.853 92.3108 271.19C92.2615 271.527 92.2859 271.871 92.382 272.197H92.4012Z" fill="#FF49BC"/>
<path d="M99.6856 324.101C98.2908 324.653 96.3147 322.937 96.3147 322.937C96.3147 322.937 96.5956 320.33 97.9905 319.787C98.2825 319.615 98.6083 319.51 98.9452 319.476C99.2821 319.443 99.6221 319.483 99.942 319.594C100.262 319.704 100.554 319.883 100.798 320.118C101.043 320.352 101.233 320.637 101.357 320.952C101.481 321.268 101.535 321.606 101.516 321.944C101.497 322.282 101.405 322.612 101.246 322.912C101.087 323.211 100.865 323.472 100.596 323.677C100.327 323.882 100.016 324.027 99.6856 324.101Z" fill="#FF49BC"/>
<path d="M93.8446 326.815C93.5928 325.341 95.6755 323.752 95.6755 323.752C95.6755 323.752 98.1651 324.566 98.4169 326.04C98.5215 326.36 98.5558 326.7 98.5174 327.035C98.4791 327.37 98.369 327.693 98.1946 327.981C98.0203 328.27 97.7858 328.517 97.5072 328.707C97.2285 328.897 96.9124 329.024 96.5801 329.081C96.2478 329.137 95.9074 329.121 95.5819 329.034C95.2564 328.947 94.9535 328.79 94.6939 328.575C94.4342 328.36 94.2241 328.092 94.0776 327.788C93.931 327.484 93.8514 327.152 93.8446 326.815Z" fill="#B11E36"/>
<path d="M91.9653 322.065C92.8371 323.286 95.4332 322.928 95.4332 322.928C95.4332 322.928 96.6151 320.582 95.7433 319.36C95.5924 319.053 95.3765 318.783 95.1109 318.569C94.8453 318.354 94.5361 318.199 94.2049 318.116C93.8737 318.033 93.5285 318.023 93.1929 318.086C92.8574 318.15 92.5396 318.286 92.2619 318.485C91.9841 318.684 91.7529 318.941 91.5843 319.238C91.4157 319.535 91.3138 319.865 91.2856 320.206C91.2574 320.547 91.3035 320.889 91.4209 321.21C91.5383 321.531 91.7241 321.823 91.9653 322.065Z" fill="#FF49BC"/>
<path d="M81.1745 344.905C82.6566 345.128 83.5089 347.609 83.5089 347.609C83.5089 347.609 81.9591 349.723 80.4771 349.49C80.1393 349.49 79.8055 349.417 79.4985 349.276C79.1915 349.136 78.9184 348.93 78.6982 348.674C78.478 348.417 78.3158 348.116 78.2226 347.791C78.1294 347.466 78.1074 347.125 78.1583 346.791C78.2091 346.457 78.3315 346.138 78.517 345.855C78.7026 345.573 78.9469 345.334 79.2334 345.155C79.5198 344.975 79.8417 344.86 80.1767 344.817C80.5117 344.774 80.8521 344.804 81.1745 344.905Z" fill="#FF49BC"/>
<path d="M87.5966 345.477C87.0638 346.882 84.4678 347.202 84.4678 347.202C84.4678 347.202 82.7242 345.263 83.2473 343.838C83.3149 343.504 83.4542 343.188 83.6557 342.913C83.8572 342.637 84.1161 342.409 84.4144 342.244C84.7127 342.079 85.0433 341.98 85.3833 341.955C85.7233 341.931 86.0646 341.98 86.3837 342.1C86.7027 342.221 86.992 342.409 87.2312 342.652C87.4705 342.895 87.6541 343.187 87.7695 343.508C87.8848 343.829 87.9292 344.171 87.8993 344.511C87.8695 344.851 87.7662 345.181 87.5966 345.477Z" fill="#FF49BC"/>
<path d="M86.8218 350.527C86.6862 349.034 84.2646 348.036 84.2646 348.036C84.2646 348.036 82.0658 349.471 82.2015 350.944C82.1853 351.28 82.2414 351.615 82.3661 351.927C82.4907 352.24 82.6808 352.521 82.9237 352.754C83.1666 352.986 83.4566 353.163 83.7739 353.273C84.0912 353.383 84.4285 353.424 84.7629 353.393C85.0973 353.361 85.421 353.258 85.7122 353.09C86.0033 352.923 86.255 352.694 86.4503 352.421C86.6455 352.147 86.7799 351.835 86.844 351.505C86.9081 351.175 86.9004 350.835 86.8218 350.508V350.527Z" fill="#D04757"/>
<path d="M80.4576 276.385C81.6006 277.355 81.0386 279.914 81.0386 279.914C81.0386 279.914 78.617 280.883 77.4643 279.914C77.1789 279.736 76.9351 279.499 76.7494 279.218C76.5638 278.938 76.4406 278.62 76.3883 278.288C76.336 277.955 76.3557 277.616 76.4462 277.292C76.5367 276.967 76.6959 276.667 76.9128 276.409C77.1297 276.152 77.3993 275.945 77.7034 275.801C78.0075 275.658 78.3389 275.581 78.6752 275.577C79.0114 275.573 79.3446 275.641 79.6521 275.777C79.9596 275.913 80.2344 276.114 80.4576 276.366V276.385Z" fill="#FF49BC"/>
<path d="M85.6206 280.243C84.4388 281.213 82.056 280.079 82.056 280.079C82.056 280.079 81.5813 277.5 82.7631 276.579C82.9945 276.328 83.2778 276.129 83.5934 275.999C83.909 275.868 84.2494 275.807 84.5907 275.821C84.932 275.835 85.2661 275.923 85.57 276.079C85.8739 276.235 86.1403 276.456 86.3504 276.725C86.5606 276.995 86.7094 277.307 86.787 277.64C86.8645 277.973 86.8689 278.319 86.7995 278.653C86.7301 278.988 86.5885 279.304 86.385 279.578C86.1814 279.853 85.9206 280.08 85.6206 280.243Z" fill="#FF49BC"/>
<path d="M82.3368 284.15C82.9955 282.803 81.4457 280.689 81.4457 280.689C81.4457 280.689 78.8205 280.767 78.1618 282.114C77.9639 282.393 77.829 282.712 77.7664 283.048C77.7039 283.384 77.7153 283.73 77.7998 284.062C77.8842 284.393 78.0397 284.702 78.2555 284.967C78.4713 285.232 78.7422 285.447 79.0494 285.597C79.3566 285.747 79.6927 285.828 80.0344 285.834C80.376 285.841 80.7153 285.773 81.0281 285.636C81.3409 285.498 81.6199 285.294 81.8459 285.037C82.0719 284.781 82.2395 284.478 82.3368 284.15Z" fill="#FF49BC"/>
<path d="M31.1716 163C32.3244 163.97 31.7529 166.529 31.7529 166.529C31.7529 166.529 29.3313 167.498 28.1883 166.529C27.903 166.352 27.6591 166.115 27.4732 165.835C27.2872 165.555 27.1636 165.238 27.1106 164.906C27.0577 164.574 27.0766 164.235 27.1662 163.911C27.2558 163.587 27.414 163.286 27.6299 163.028C27.8459 162.771 28.1146 162.563 28.4179 162.418C28.7212 162.274 29.0519 162.196 29.3878 162.191C29.7237 162.185 30.0567 162.252 30.3645 162.387C30.6723 162.521 30.9475 162.721 31.1716 162.971V163Z" fill="#FF49BC"/>
<path d="M36.3446 166.859C35.1628 167.828 32.7702 166.704 32.7702 166.704C32.7702 166.704 32.3053 164.125 33.487 163.204C33.7189 162.959 34.0008 162.767 34.3136 162.641C34.6263 162.515 34.9626 162.459 35.2993 162.475C35.636 162.491 35.9652 162.579 36.2646 162.734C36.5641 162.889 36.8267 163.107 37.0344 163.372C37.2421 163.638 37.3901 163.945 37.4684 164.273C37.5466 164.602 37.5532 164.943 37.4878 165.274C37.4223 165.605 37.2863 165.918 37.089 166.191C36.8917 166.465 36.6378 166.692 36.3446 166.859Z" fill="#B11E36"/>
<path d="M33.0512 170.775C33.7099 169.428 32.1598 167.314 32.1598 167.314C32.1598 167.314 29.5445 167.392 28.8858 168.739C28.694 169.017 28.5644 169.333 28.5058 169.666C28.4472 169.999 28.461 170.34 28.5465 170.667C28.6319 170.994 28.7869 171.298 29.0008 171.56C29.2146 171.821 29.4824 172.033 29.7857 172.181C30.089 172.329 30.4207 172.41 30.7581 172.418C31.0956 172.427 31.4307 172.362 31.7408 172.228C32.0508 172.095 32.3284 171.896 32.5545 171.645C32.7807 171.394 32.9502 171.098 33.0512 170.775Z" fill="#FF49BC"/>
<path d="M38.5434 183.727C39.3377 182.447 41.9531 182.641 41.9531 182.641C41.9531 182.641 43.2802 184.9 42.4859 186.179C42.3504 186.487 42.1506 186.761 41.8999 186.985C41.6492 187.208 41.3536 187.375 41.0329 187.474C40.7123 187.573 40.3741 187.602 40.0413 187.559C39.7085 187.516 39.3886 187.402 39.1036 187.225C38.8186 187.047 38.575 186.811 38.3892 186.531C38.2034 186.252 38.0798 185.935 38.0266 185.604C37.9735 185.272 37.9921 184.933 38.0813 184.609C38.1704 184.285 38.328 183.984 38.5434 183.727Z" fill="#FF49BC"/>
<path d="M41.6236 178.056C42.7085 179.093 41.9822 181.614 41.9822 181.614C41.9822 181.614 39.4925 182.447 38.4173 181.41C38.1426 181.215 37.9134 180.963 37.7447 180.671C37.5761 180.38 37.4721 180.055 37.4401 179.72C37.4081 179.384 37.4484 179.046 37.5588 178.727C37.6692 178.409 37.8468 178.118 38.0796 177.875C38.3123 177.631 38.5948 177.441 38.9078 177.316C39.2207 177.192 39.5567 177.136 39.893 177.153C40.2293 177.17 40.5581 177.26 40.8567 177.416C41.1553 177.571 41.4169 177.79 41.6236 178.056Z" fill="#FF49BC"/>
<path d="M45.9633 180.751C44.5394 180.295 42.6699 182.127 42.6699 182.127C42.6699 182.127 43.1154 184.716 44.5394 185.171C44.8431 185.33 45.1779 185.42 45.5201 185.436C45.8623 185.451 46.2036 185.392 46.5205 185.262C46.8374 185.132 47.1222 184.934 47.3548 184.682C47.5875 184.431 47.7627 184.131 47.8678 183.805C47.9729 183.479 48.0053 183.134 47.9633 182.793C47.9213 182.453 47.8057 182.126 47.6244 181.835C47.4431 181.545 47.2004 181.297 46.9135 181.109C46.6266 180.922 46.3023 180.8 45.9633 180.751Z" fill="#FF49BC"/>
<path d="M62.8665 176.485C62.1788 177.823 59.5538 177.833 59.5538 177.833C59.5538 177.833 58.0522 175.681 58.74 174.352C58.845 174.027 59.0196 173.728 59.2515 173.477C59.4835 173.226 59.7673 173.029 60.0833 172.898C60.3992 172.768 60.7396 172.708 61.081 172.723C61.4224 172.738 61.7565 172.826 62.0601 172.983C62.3637 173.14 62.6295 173.361 62.8391 173.631C63.0487 173.902 63.197 174.214 63.2738 174.547C63.3505 174.881 63.3538 175.226 63.2835 175.561C63.2132 175.896 63.0709 176.211 62.8665 176.485Z" fill="#FF49BC"/>
<path d="M60.2416 182.379C59.0792 181.41 59.612 178.86 59.612 178.86C59.612 178.86 62.0239 177.833 63.1863 178.783C63.4928 178.946 63.7595 179.175 63.9672 179.453C64.175 179.731 64.3188 180.052 64.3882 180.392C64.4575 180.733 64.4506 181.084 64.3683 181.422C64.286 181.759 64.1304 182.074 63.9121 182.344C63.6939 182.614 63.4187 182.833 63.1062 182.984C62.7937 183.135 62.4515 183.215 62.1044 183.219C61.7573 183.222 61.414 183.148 61.0986 183.003C60.7832 182.858 60.5038 182.645 60.2803 182.379H60.2416Z" fill="#FF49BC"/>
<path d="M55.7081 180.033C57.1611 180.382 58.8853 178.395 58.8853 178.395C58.8853 178.395 58.2364 175.855 56.7737 175.487C56.4608 175.362 56.1246 175.307 55.7883 175.324C55.4519 175.341 55.1232 175.43 54.8245 175.586C54.5259 175.742 54.2642 175.96 54.0574 176.226C53.8506 176.492 53.7034 176.8 53.626 177.128C53.5486 177.456 53.5429 177.797 53.609 178.127C53.6751 178.458 53.8116 178.77 54.0091 179.043C54.2067 179.316 54.4607 179.543 54.7538 179.709C55.047 179.875 55.3725 179.976 55.7081 180.004V180.033Z" fill="#FF49BC"/>
<path d="M82.0365 189.253C80.8644 190.222 78.4719 189.136 78.4719 189.136C78.4719 189.136 77.9681 186.567 79.1402 185.627C79.3704 185.383 79.6501 185.192 79.9604 185.066C80.2706 184.94 80.6041 184.881 80.9387 184.895C81.2734 184.909 81.6014 184.994 81.9003 185.145C82.1993 185.296 82.4624 185.51 82.672 185.771C82.8815 186.033 83.0326 186.336 83.1152 186.661C83.1977 186.986 83.2097 187.324 83.1504 187.654C83.0911 187.984 82.962 188.298 82.7715 188.573C82.5811 188.849 82.3337 189.081 82.0462 189.253H82.0365Z" fill="#B11E36"/>
<path d="M77.2513 193.576C76.5732 192.238 78.1036 190.106 78.1036 190.106C78.1036 190.106 80.7192 190.106 81.3972 191.482C81.5992 191.758 81.7386 192.075 81.8059 192.41C81.8732 192.746 81.8668 193.092 81.787 193.424C81.7072 193.757 81.5561 194.068 81.344 194.336C81.1319 194.604 80.864 194.823 80.5589 194.977C80.2537 195.131 79.9186 195.217 79.577 195.229C79.2354 195.24 78.8954 195.177 78.5806 195.044C78.2659 194.91 77.9839 194.71 77.7543 194.457C77.5248 194.203 77.3532 193.903 77.2513 193.576Z" fill="#FF49BC"/>
<path d="M74.0546 189.582C75.2461 190.493 77.6192 189.379 77.6192 189.379C77.6192 189.379 78.0553 186.8 76.8639 185.889C76.6286 185.648 76.344 185.46 76.0298 185.339C75.7155 185.218 75.3788 185.166 75.0427 185.186C74.7065 185.207 74.3788 185.3 74.0818 185.459C73.7848 185.618 73.5255 185.839 73.3215 186.107C73.1175 186.375 72.9737 186.684 72.8998 187.013C72.8259 187.342 72.8236 187.683 72.8932 188.013C72.9628 188.342 73.1026 188.653 73.303 188.924C73.5035 189.195 73.7597 189.419 74.0546 189.582Z" fill="#D04757"/>
<path d="M97.1091 218.578C95.937 219.547 93.5348 218.462 93.5348 218.462C93.5348 218.462 93.0407 215.893 94.2128 214.952C94.4429 214.709 94.7225 214.517 95.0327 214.391C95.343 214.265 95.6767 214.207 96.0113 214.22C96.346 214.234 96.6739 214.319 96.9729 214.47C97.2718 214.622 97.5348 214.835 97.7443 215.097C97.9539 215.358 98.1052 215.661 98.1877 215.986C98.2703 216.311 98.2823 216.65 98.223 216.98C98.1637 217.31 98.0346 217.623 97.8441 217.899C97.6536 218.174 97.4063 218.406 97.1188 218.578H97.1091Z" fill="#FF49BC"/>
<path d="M92.3433 222.902C91.6653 221.564 93.186 219.431 93.186 219.431C93.186 219.431 95.8112 219.431 96.4893 220.808C96.6912 221.084 96.8306 221.4 96.8979 221.736C96.9653 222.071 96.9588 222.417 96.879 222.75C96.7992 223.082 96.6479 223.393 96.4358 223.662C96.2237 223.93 95.9558 224.149 95.6507 224.303C95.3455 224.457 95.0106 224.543 94.669 224.554C94.3274 224.565 93.9874 224.502 93.6727 224.369C93.3579 224.236 93.0759 224.035 92.8464 223.782C92.6168 223.529 92.4452 223.228 92.3433 222.902Z" fill="#B11E36"/>
<path d="M89.1465 218.878C90.338 219.79 92.7112 218.675 92.7112 218.675C92.7112 218.675 93.147 216.096 91.9556 215.185C91.7202 214.944 91.4359 214.756 91.1217 214.635C90.8075 214.514 90.4707 214.462 90.1346 214.483C89.7984 214.503 89.4707 214.596 89.1737 214.755C88.8767 214.914 88.6174 215.135 88.4134 215.403C88.2094 215.671 88.0656 215.98 87.9917 216.309C87.9178 216.638 87.9155 216.979 87.9851 217.309C88.0547 217.639 88.1943 217.949 88.3947 218.22C88.5951 218.491 88.8516 218.716 89.1465 218.878Z" fill="#FF49BC"/>
<path d="M60.1545 196.271C61.1231 195.118 63.6803 195.67 63.6803 195.67C63.6803 195.67 64.649 198.094 63.6803 199.247C63.5078 199.543 63.273 199.798 62.9921 199.993C62.7112 200.189 62.391 200.321 62.054 200.38C61.7169 200.439 61.371 200.424 61.0404 200.336C60.7097 200.248 60.4023 200.088 60.1396 199.869C59.8768 199.649 59.6649 199.375 59.5188 199.066C59.3727 198.756 59.2959 198.418 59.2936 198.076C59.2914 197.733 59.3636 197.394 59.5055 197.083C59.6475 196.771 59.8558 196.494 60.1157 196.271H60.1545Z" fill="#B11E36"/>
<path d="M63.9902 191.085C64.9589 192.258 63.8448 194.652 63.8448 194.652C63.8448 194.652 61.2683 195.137 60.348 193.954C60.115 193.721 59.9338 193.441 59.8164 193.132C59.699 192.824 59.6479 192.494 59.6664 192.165C59.685 191.835 59.7729 191.513 59.9242 191.22C60.0756 190.927 60.2872 190.669 60.545 190.463C60.8028 190.257 61.101 190.108 61.4203 190.026C61.7395 189.943 62.0725 189.929 62.3977 189.984C62.7228 190.039 63.0328 190.162 63.3072 190.345C63.5816 190.528 63.8144 190.767 63.9902 191.046V191.085Z" fill="#FF49BC"/>
<path d="M67.9134 194.352C66.567 193.702 64.4552 195.263 64.4552 195.263C64.4552 195.263 64.5424 197.881 65.8888 198.54C66.1681 198.735 66.4863 198.867 66.8215 198.927C67.1568 198.987 67.5011 198.973 67.8306 198.887C68.1601 198.801 68.4669 198.644 68.73 198.428C68.9931 198.211 69.2063 197.941 69.3546 197.634C69.5029 197.327 69.583 196.992 69.5892 196.651C69.5954 196.31 69.5276 195.972 69.3905 195.66C69.2535 195.348 69.0506 195.069 68.7955 194.844C68.5405 194.618 68.2396 194.45 67.9134 194.352Z" fill="#FF49BC"/>
<path d="M86.0372 240.952C87.0059 239.799 89.5631 240.351 89.5631 240.351C89.5631 240.351 90.5318 242.775 89.5631 243.929C89.3863 244.214 89.1503 244.458 88.8711 244.644C88.5919 244.831 88.276 244.955 87.9448 245.008C87.6135 245.062 87.2747 245.044 86.9511 244.955C86.6274 244.866 86.3268 244.709 86.0692 244.494C85.8115 244.279 85.6029 244.011 85.4576 243.708C85.3123 243.405 85.2337 243.075 85.227 242.739C85.2203 242.403 85.2857 242.07 85.4188 241.762C85.5519 241.454 85.7496 241.178 85.9985 240.952H86.0372Z" fill="#FF49BC"/>
<path d="M89.873 235.766C90.8417 236.939 89.7276 239.333 89.7276 239.333C89.7276 239.333 87.1607 239.818 86.2308 238.635C85.9978 238.402 85.8166 238.122 85.6992 237.813C85.5818 237.505 85.5307 237.175 85.5493 236.846C85.5678 236.516 85.6559 236.194 85.8073 235.901C85.9586 235.608 86.17 235.35 86.4278 235.144C86.6856 234.938 86.9838 234.789 87.3031 234.707C87.6224 234.624 87.9556 234.61 88.2807 234.665C88.6059 234.72 88.9156 234.843 89.19 235.026C89.4644 235.209 89.6972 235.448 89.873 235.727V235.766Z" fill="#FF49BC"/>
<path d="M93.7962 239.033C92.4497 238.383 90.3477 239.944 90.3477 239.944C90.3477 239.944 90.4251 242.571 91.7813 243.221C92.0607 243.418 92.3797 243.551 92.7159 243.612C93.0521 243.673 93.3974 243.66 93.7281 243.574C94.0587 243.488 94.3667 243.33 94.6305 243.113C94.8944 242.896 95.1078 242.624 95.256 242.316C95.4043 242.008 95.4839 241.671 95.489 241.329C95.4941 240.987 95.4248 240.648 95.2858 240.336C95.1469 240.024 94.9417 239.745 94.6844 239.52C94.4272 239.295 94.1241 239.129 93.7962 239.033Z" fill="#D04757"/>
<path d="M72.7472 210.202C74.2099 209.863 75.9147 211.85 75.9147 211.85C75.9147 211.85 75.2462 214.39 73.7835 214.758C73.4671 214.89 73.1261 214.951 72.7838 214.937C72.4415 214.923 72.1064 214.834 71.8019 214.677C71.4974 214.52 71.2308 214.298 71.0208 214.028C70.8107 213.757 70.6621 213.443 70.5856 213.109C70.5091 212.775 70.5065 212.428 70.5778 212.093C70.6491 211.758 70.7925 211.442 70.9983 211.168C71.2041 210.894 71.4673 210.668 71.7693 210.506C72.0713 210.344 72.4052 210.25 72.7472 210.231V210.202Z" fill="#FF49BC"/>
<path d="M78.9367 208.389C78.9367 209.892 76.6603 211.142 76.6603 211.142C76.6603 211.142 74.3161 209.969 74.2968 208.467C74.2434 208.135 74.2619 207.795 74.3512 207.471C74.4404 207.147 74.5984 206.845 74.8142 206.588C75.03 206.33 75.2987 206.121 75.602 205.976C75.9053 205.832 76.236 205.754 76.572 205.748C76.9081 205.743 77.2413 205.809 77.5492 205.944C77.8572 206.078 78.1328 206.278 78.3571 206.528C78.5813 206.779 78.7492 207.075 78.8492 207.396C78.9492 207.717 78.979 208.056 78.9367 208.389Z" fill="#B11E36"/>
<path d="M80.0798 213.372C79.4017 212.034 76.7767 212.005 76.7767 212.005C76.7767 212.005 75.2655 214.138 75.9435 215.476C76.0512 215.795 76.2263 216.087 76.4567 216.332C76.6871 216.577 76.9676 216.77 77.279 216.897C77.5904 217.024 77.9254 217.082 78.2614 217.068C78.5974 217.055 78.9267 216.968 79.2265 216.816C79.5263 216.663 79.7898 216.448 79.9991 216.185C80.2085 215.921 80.3588 215.616 80.4397 215.289C80.5207 214.963 80.5304 214.622 80.4683 214.291C80.4063 213.961 80.2737 213.647 80.0798 213.372Z" fill="#FF49BC"/>
<path d="M139.73 242.145C138.345 242.707 136.34 241.001 136.34 241.001C136.34 241.001 136.602 238.393 137.996 237.831C138.288 237.654 138.615 237.543 138.954 237.505C139.293 237.467 139.637 237.504 139.96 237.612C140.284 237.72 140.58 237.897 140.829 238.131C141.077 238.365 141.272 238.65 141.399 238.967C141.526 239.284 141.583 239.625 141.566 239.966C141.549 240.307 141.458 240.64 141.299 240.942C141.14 241.244 140.918 241.509 140.647 241.716C140.376 241.924 140.063 242.07 139.73 242.145Z" fill="#FF49BC"/>
<path d="M133.919 244.917C133.657 243.434 135.73 241.835 135.73 241.835C135.73 241.835 138.219 242.62 138.491 244.103C138.605 244.425 138.648 244.769 138.616 245.109C138.584 245.45 138.479 245.78 138.307 246.075C138.135 246.371 137.901 246.626 137.621 246.822C137.341 247.018 137.021 247.15 136.685 247.21C136.348 247.27 136.003 247.256 135.672 247.169C135.342 247.081 135.034 246.923 134.771 246.705C134.508 246.487 134.295 246.214 134.148 245.905C134.001 245.597 133.922 245.259 133.919 244.917Z" fill="#F67A56"/>
<path d="M131.981 240.206C132.863 241.418 135.459 241.04 135.459 241.04C135.459 241.04 136.611 238.684 135.73 237.472C135.573 237.174 135.354 236.913 135.088 236.707C134.821 236.501 134.514 236.355 134.186 236.278C133.858 236.202 133.518 236.197 133.188 236.264C132.858 236.331 132.546 236.469 132.274 236.667C132.002 236.865 131.776 237.12 131.611 237.414C131.446 237.708 131.346 238.034 131.318 238.369C131.291 238.705 131.335 239.043 131.45 239.36C131.564 239.677 131.745 239.965 131.981 240.206Z" fill="#FF49BC"/>
<path d="M126.75 259.265C125.307 258.868 124.755 256.299 124.755 256.299C124.755 256.299 126.556 254.36 128 254.796C128.334 254.838 128.656 254.952 128.942 255.129C129.229 255.307 129.474 255.544 129.66 255.825C129.847 256.106 129.971 256.424 130.023 256.757C130.076 257.09 130.056 257.431 129.965 257.756C129.875 258.081 129.715 258.382 129.497 258.64C129.279 258.897 129.009 259.105 128.703 259.248C128.398 259.391 128.066 259.467 127.729 259.47C127.392 259.473 127.058 259.403 126.75 259.265Z" fill="#FF49BC"/>
<path d="M120.454 257.908C121.142 256.57 123.767 256.57 123.767 256.57C123.767 256.57 125.259 258.712 124.571 260.05C124.46 260.368 124.282 260.658 124.049 260.901C123.817 261.144 123.534 261.333 123.222 261.457C122.909 261.581 122.574 261.637 122.238 261.62C121.903 261.603 121.574 261.513 121.276 261.358C120.978 261.203 120.716 260.985 120.51 260.72C120.303 260.455 120.155 260.148 120.077 259.821C119.999 259.494 119.993 259.154 120.058 258.823C120.123 258.493 120.258 258.181 120.454 257.908Z" fill="#B11E36"/>
<path d="M121.82 252.983C121.82 254.476 124.067 255.756 124.067 255.756C124.067 255.756 126.421 254.602 126.46 253.099C126.525 252.763 126.517 252.416 126.435 252.084C126.353 251.751 126.2 251.44 125.985 251.173C125.771 250.906 125.501 250.688 125.194 250.536C124.887 250.384 124.551 250.301 124.208 250.292C123.866 250.284 123.526 250.35 123.212 250.486C122.898 250.623 122.617 250.826 122.39 251.083C122.162 251.339 121.994 251.642 121.895 251.97C121.797 252.298 121.771 252.644 121.82 252.983Z" fill="#FF49BC"/>
<path d="M116.482 242.668C116.395 244.161 114.002 245.247 114.002 245.247C114.002 245.247 111.755 243.89 111.842 242.397C111.808 242.058 111.848 241.715 111.958 241.392C112.069 241.07 112.249 240.775 112.484 240.529C112.72 240.283 113.007 240.091 113.324 239.966C113.641 239.841 113.981 239.787 114.322 239.807C114.662 239.827 114.994 239.92 115.294 240.081C115.595 240.242 115.857 240.466 116.062 240.738C116.268 241.01 116.411 241.324 116.484 241.657C116.557 241.99 116.556 242.335 116.482 242.668Z" fill="#FF49BC"/>
<path d="M116.482 249.115C115.039 248.727 114.477 246.207 114.477 246.207C114.477 246.207 116.269 244.268 117.713 244.685C118.053 244.719 118.383 244.827 118.677 245.002C118.972 245.177 119.225 245.413 119.419 245.696C119.612 245.979 119.742 246.3 119.799 246.638C119.856 246.976 119.838 247.323 119.747 247.653C119.656 247.984 119.495 248.29 119.273 248.552C119.052 248.813 118.776 249.023 118.465 249.167C118.154 249.311 117.816 249.385 117.474 249.384C117.131 249.384 116.793 249.308 116.482 249.164V249.115Z" fill="#FF49BC"/>
<path d="M111.407 248.824C112.879 248.543 113.644 246.032 113.644 246.032C113.644 246.032 112.017 243.977 110.545 244.258C110.203 244.265 109.866 244.347 109.559 244.497C109.252 244.648 108.981 244.864 108.766 245.129C108.55 245.395 108.395 245.705 108.312 246.037C108.228 246.368 108.217 246.715 108.281 247.051C108.344 247.387 108.48 247.706 108.679 247.984C108.878 248.262 109.135 248.494 109.433 248.663C109.73 248.832 110.061 248.933 110.402 248.961C110.743 248.989 111.086 248.942 111.407 248.824Z" fill="#F67A56"/>
<path d="M53.5964 370.546H129.153C129.413 370.547 129.67 370.607 129.905 370.721C130.14 370.834 130.346 370.998 130.51 371.202C130.673 371.405 130.789 371.642 130.849 371.896C130.909 372.15 130.912 372.414 130.857 372.669L129.84 377.361C129.756 377.751 129.541 378.1 129.231 378.351C128.921 378.601 128.534 378.738 128.135 378.738H55.4174C55.0629 378.738 54.7169 378.631 54.4246 378.43C54.1324 378.229 53.9077 377.944 53.7804 377.613L52.0077 372.912C51.9107 372.651 51.8773 372.37 51.91 372.094C51.9427 371.817 52.0407 371.552 52.1959 371.321C52.3512 371.09 52.559 370.899 52.8025 370.764C53.046 370.63 53.3183 370.555 53.5964 370.546Z" fill="#339D66" stroke="black" stroke-miterlimit="10"/>
<path d="M59.5828 386.125C60.4255 386.125 124.057 378.738 124.057 378.738H58.8175L59.5828 386.125Z" fill="black"/>
<path d="M269.3 224.162C248.89 229.445 219.597 231.714 195.904 224.559C176.298 218.626 168.626 199.48 164.993 177.057C173.227 182.786 197.347 178.666 234.641 177.871L317.549 178.841C320.202 178.872 322.807 179.547 325.142 180.808C327.476 182.07 329.469 183.88 330.95 186.083C332.431 188.286 333.355 190.816 333.643 193.455C333.93 196.094 333.573 198.764 332.602 201.235L261.046 365.389L246.052 365.127L289.264 216.329C284.905 219.15 277.892 221.913 269.3 224.143C248.89 229.426 219.597 231.694 195.904 224.54" fill="#00404C"/>
</g>
<defs>
<clipPath id="clip0_22_1167">
<rect width="371" height="444" fill="white"/>
</clipPath>
</defs>
</svg>
